<?xml version="1.0" standalone="no"?>
<!DOCTYPE svg PUBLIC "-//W3C//DTD SVG 20010904//EN"
 "http://www.w3.org/TR/2001/REC-SVG-20010904/DTD/svg10.dtd">
<svg version="1.0" xmlns="http://www.w3.org/2000/svg"
 width="200.000000pt" height="200.000000pt" viewBox="0 0 200.000000 200.000000"
 preserveAspectRatio="xMidYMid meet">

<g transform="translate(0.000000,200.000000) scale(0.100000,-0.100000)"
fill="#000000" stroke="none">
<path d="M0 1000 l0 -1000 1000 0 1000 0 0 1000 0 1000 -1000 0 -1000 0 0
-1000z m1223 535 c45 -21 29 6 364 -617 89 -166 95 -192 47 -204 -31 -8 -49 8
-81 70 -14 28 -49 94 -78 146 -29 52 -101 185 -160 295 -59 110 -114 208 -124
217 -38 41 -47 26 -303 -487 -178 -355 -253 -495 -267 -500 -27 -8 -61 11 -61
35 0 20 478 981 502 1010 41 50 103 63 161 35z m-455 -349 c3 -14 -183 -395
-325 -665 -33 -63 -55 -81 -80 -65 -43 27 -42 30 141 390 98 192 187 357 198
367 18 15 23 16 42 4 12 -8 23 -22 24 -31z m550 -199 c102 -203 113 -231 104
-253 l-12 -24 -234 0 c-200 0 -237 2 -250 16 -9 8 -16 18 -16 21 0 9 221 447
233 461 5 7 22 12 36 10 22 -3 39 -30 139 -231z"/>
<path d="M1102 935 c-34 -69 -62 -127 -62 -130 0 -3 59 -5 130 -5 72 0 130 3
130 7 0 13 -123 253 -129 253 -4 0 -34 -56 -69 -125z"/>
</g>
</svg>
