<?xml version="1.0" encoding="UTF-8"?>
<svg version="1.1" xmlns="http://www.w3.org/2000/svg" width="200" height="200">
<path d="M0 0 C66 0 132 0 200 0 C200 66 200 132 200 200 C134 200 68 200 0 200 C0 134 0 68 0 0 Z " fill="#2D2B73" transform="translate(0,0)"/>
<path d="M0 0 C10.24165256 5.31778114 14.26552065 16.69397781 19.38061523 26.44165039 C19.99658569 27.61522095 19.99658569 27.61522095 20.625 28.8125 C21.046604 29.6161499 21.46820801 30.4197998 21.90258789 31.24780273 C25.23774494 37.58935065 28.6339087 43.89602133 32.0625 50.1875 C32.56305908 51.10958252 33.06361816 52.03166504 33.5793457 52.98168945 C35.92033179 57.27508615 38.29506911 61.5362794 40.796875 65.73828125 C41.22347412 66.46313721 41.65007324 67.18799316 42.08959961 67.93481445 C42.87801142 69.26625297 43.67999499 70.58979276 44.49829102 71.90307617 C46.35275811 75.04719587 47.01972773 76.7484 46.73046875 80.4375 C46.48941406 81.283125 46.24835938 82.12875 46 83 C44.02 83.33 42.04 83.66 40 84 C35.57142857 78.85714286 35.57142857 78.85714286 35 75 C33.68 75 32.36 75 31 75 C31 74.01 31 73.02 31 72 C30.34 72 29.68 72 29 72 C28.505 73.485 28.505 73.485 28 75 C27.34 75 26.68 75 26 75 C26 73.02 26 71.04 26 69 C26.66 69 27.32 69 28 69 C27.2236068 65.9254644 27.2236068 65.9254644 25 64 C24.67 63.34 24.34 62.68 24 62 C20.75150023 63.72226496 20.75150023 63.72226496 20 67 C19.34 67 18.68 67 18 67 C18.28875 67.55429688 18.5775 68.10859375 18.875 68.6796875 C19.24625 69.40414062 19.6175 70.12859375 20 70.875 C20.37125 71.59429687 20.7425 72.31359375 21.125 73.0546875 C22 75 22 75 22 77 C22.66 77 23.32 77 24 77 C24.36613231 82.49198466 24.36613231 82.49198466 22.79069519 84.67793274 C20.44733114 86.4080345 19.05887307 86.3629219 16.16137695 86.34057617 C15.1805867 86.34034958 14.19979645 86.34012299 13.18928528 86.33988953 C12.13295395 86.32440567 11.07662262 86.30892181 9.98828125 86.29296875 C8.90491989 86.28872391 7.82155853 86.28447906 6.70536804 86.28010559 C3.24082723 86.26329569 -0.22313462 86.22563848 -3.6875 86.1875 C-6.03449682 86.17245619 -8.38150274 86.15876726 -10.72851562 86.14648438 C-16.4859006 86.11338447 -22.2428521 86.0615856 -28 86 C-28.66 83.03 -29.32 80.06 -30 77 C-30.99 77.99 -31.98 78.98 -33 80 C-33.66 80 -34.32 80 -35 80 C-34.67 80.99 -34.34 81.98 -34 83 C-34.66 83 -35.32 83 -36 83 C-36 80.69 -36 78.38 -36 76 C-37.91317912 79.24855246 -39.68600995 82.46070423 -41 86 C-40.23445086 89.30164047 -40.23445086 89.30164047 -39 92 C-40.25 94.375 -40.25 94.375 -42 96 C-42.66 96 -43.32 96 -44 96 C-43.67 94.68 -43.34 93.36 -43 92 C-45.475 92.99 -45.475 92.99 -48 94 C-48 94.99 -48 95.98 -48 97 C-47.34 97 -46.68 97 -46 97 C-46.38263478 99.77410214 -46.71340714 100.76887672 -48.9375 102.5625 C-49.618125 103.036875 -50.29875 103.51125 -51 104 C-52.93798263 106.77260299 -52.93798263 106.77260299 -54 109 C-61.41176471 110.29411765 -61.41176471 110.29411765 -64 109 C-65.04616878 102.42408194 -62.29929019 98.54101934 -58.82421875 93.0625 C-56.88005628 89.79863838 -55.46388133 86.5034035 -54 83 C-52.8112836 80.50026429 -51.5631994 78.03170257 -50.3125 75.5625 C-49.60020609 74.14716276 -48.88796808 72.73179738 -48.17578125 71.31640625 C-47.81436035 70.59984863 -47.45293945 69.88329102 -47.08056641 69.14501953 C-45.37904193 65.76734352 -43.68987921 62.38351277 -42 59 C-41.33339851 57.66663408 -40.6667317 56.33330082 -40 55 C-39.67 54.34 -39.34 53.68 -39 53 C-38 51 -37 49 -36 47 C-35.67 46.33991943 -35.34 45.67983887 -35 44.99975586 C-34.33359376 43.66710607 -33.66692727 42.33458638 -33 41.00219727 C-31.32718536 37.6594268 -29.65902312 34.31448271 -28 30.96484375 C-26.35084873 27.63756637 -24.68492139 24.31913222 -23.00878906 21.00537109 C-22.32265639 19.64140843 -21.64253174 18.27441045 -20.96777344 16.90478516 C-19.95168472 14.84536545 -18.91552796 12.79715842 -17.875 10.75 C-17.57464844 10.12988037 -17.27429688 9.50976074 -16.96484375 8.87084961 C-13.30010745 1.77828727 -7.79921817 -1.5442452 0 0 Z " fill="#2E2D6E" transform="translate(120,45)"/>
<path d="M0 0 C10.24165256 5.31778114 14.26552065 16.69397781 19.38061523 26.44165039 C19.99658569 27.61522095 19.99658569 27.61522095 20.625 28.8125 C21.046604 29.6161499 21.46820801 30.4197998 21.90258789 31.24780273 C25.23774494 37.58935065 28.6339087 43.89602133 32.0625 50.1875 C32.56305908 51.10958252 33.06361816 52.03166504 33.5793457 52.98168945 C35.92033179 57.27508615 38.29506911 61.5362794 40.796875 65.73828125 C41.22347412 66.46313721 41.65007324 67.18799316 42.08959961 67.93481445 C42.87801142 69.26625297 43.67999499 70.58979276 44.49829102 71.90307617 C46.35275811 75.04719587 47.01972773 76.7484 46.73046875 80.4375 C46.48941406 81.283125 46.24835938 82.12875 46 83 C44.02 83.33 42.04 83.66 40 84 C36.04920227 79.54386767 33.55087479 74.58087663 30.875 69.3125 C30.0008051 67.59851729 29.12334897 65.88619287 28.2421875 64.17578125 C27.8591748 63.42208252 27.47616211 62.66838379 27.08154297 61.8918457 C26.02285679 59.84757032 26.02285679 59.84757032 24 58 C23.29016439 56.36906817 22.58494355 54.73593199 21.90625 53.09179688 C18.89710047 46.14610905 15.100843 39.51385568 11.52587891 32.84814453 C10.513944 30.95930732 9.50833089 29.06706873 8.50927734 27.17138672 C7.0926957 24.49625036 5.64522316 21.84039395 4.1875 19.1875 C3.75630859 18.3634668 3.32511719 17.53943359 2.88085938 16.69042969 C2.45998047 15.94051758 2.03910156 15.19060547 1.60546875 14.41796875 C1.24606201 13.75563232 0.88665527 13.0932959 0.51635742 12.41088867 C-1.04238491 10.66336294 -1.04238491 10.66336294 -4.1628418 10.78637695 C-5.56723511 10.89212036 -5.56723511 10.89212036 -7 11 C-7.31227539 11.69037354 -7.62455078 12.38074707 -7.94628906 13.09204102 C-9.37733996 16.25046885 -10.81362301 19.406491 -12.25 22.5625 C-12.98669922 24.19155273 -12.98669922 24.19155273 -13.73828125 25.85351562 C-16.26980493 31.40599091 -18.90685527 36.74295359 -22 42 C-23.18477847 44.32647409 -24.35145178 46.65599276 -25.5 49 C-28.85365869 55.78577974 -32.34715713 62.49088224 -35.875 69.1875 C-40.36519291 77.72455031 -44.6359231 86.33985085 -48.70263672 95.08666992 C-50.93189287 99.86235282 -53.14096203 104.56557376 -56 109 C-59.23503763 110.03521204 -60.92839759 110.5358012 -64 109 C-65.04616878 102.42408194 -62.29929019 98.54101934 -58.82421875 93.0625 C-56.88005628 89.79863838 -55.46388133 86.5034035 -54 83 C-52.8112836 80.50026429 -51.5631994 78.03170257 -50.3125 75.5625 C-49.60020609 74.14716276 -48.88796808 72.73179738 -48.17578125 71.31640625 C-47.81436035 70.59984863 -47.45293945 69.88329102 -47.08056641 69.14501953 C-45.37904193 65.76734352 -43.68987921 62.38351277 -42 59 C-41.33339851 57.66663408 -40.6667317 56.33330082 -40 55 C-39.67 54.34 -39.34 53.68 -39 53 C-38 51 -37 49 -36 47 C-35.67 46.33991943 -35.34 45.67983887 -35 44.99975586 C-34.33359376 43.66710607 -33.66692727 42.33458638 -33 41.00219727 C-31.32718536 37.6594268 -29.65902312 34.31448271 -28 30.96484375 C-26.35084873 27.63756637 -24.68492139 24.31913222 -23.00878906 21.00537109 C-22.32265639 19.64140843 -21.64253174 18.27441045 -20.96777344 16.90478516 C-19.95168472 14.84536545 -18.91552796 12.79715842 -17.875 10.75 C-17.57464844 10.12988037 -17.27429688 9.50976074 -16.96484375 8.87084961 C-13.30010745 1.77828727 -7.79921817 -1.5442452 0 0 Z " fill="#CDD42E" transform="translate(120,45)"/>
<path d="M0 0 C3.625 1.1875 3.625 1.1875 4.69140625 2.703125 C5.32540093 4.19287034 5.91619829 5.70122265 6.48046875 7.21875 C7.8810574 10.85167619 9.61176767 14.28429311 11.375 17.75 C12.06909108 19.13407414 12.76309998 20.51818948 13.45703125 21.90234375 C14.9170494 24.79912077 16.39625573 27.6851875 17.88671875 30.56640625 C18.25120117 31.27788818 18.61568359 31.98937012 18.99121094 32.72241211 C19.68685394 34.07961351 20.38897315 35.43352208 21.09863281 36.78344727 C23.03109473 40.56924435 24.3865745 43.92029495 24.625 48.1875 C23.965 49.1775 23.305 50.1675 22.625 51.1875 C20.56895447 51.55499268 20.56895447 51.55499268 18.00756836 51.54394531 C17.04995102 51.54694641 16.09233368 51.54994751 15.10569763 51.55303955 C14.06921585 51.54069275 13.03273407 51.52834595 11.96484375 51.515625 C10.90463516 51.51375183 9.84442657 51.51187866 8.75209045 51.50994873 C6.50844178 51.50321839 4.26480503 51.48928459 2.02124023 51.46875 C-1.42670501 51.43759753 -4.87419363 51.42778134 -8.32226562 51.421875 C-10.49740145 51.41270545 -12.67253259 51.40232983 -14.84765625 51.390625 C-15.88616226 51.38637512 -16.92466827 51.38212524 -17.99464417 51.37774658 C-19.42634193 51.36333527 -19.42634193 51.36333527 -20.88696289 51.34863281 C-21.73142471 51.34180481 -22.57588654 51.33497681 -23.44593811 51.32794189 C-25.375 51.1875 -25.375 51.1875 -26.375 50.1875 C-27.04615648 43.88024632 -25.23388111 40.21086596 -22.1875 34.9375 C-21.35040147 33.42844704 -20.51575724 31.91802998 -19.68359375 30.40625 C-19.28124512 29.68050781 -18.87889648 28.95476562 -18.46435547 28.20703125 C-17.09591856 25.67011729 -15.90345177 23.07839967 -14.75 20.4375 C-5.88403246 0.32689069 -5.88403246 0.32689069 0 0 Z " fill="#D1D620" transform="translate(118.375,77.8125)"/>
<path d="M0 0 C0.495 0.495 0.495 0.495 1 1 C0.71831995 5.69466753 -0.31644625 8.96933089 -2.78125 12.95703125 C-4.22138285 15.3711001 -5.44826572 17.85178131 -6.6875 20.375 C-8.76292968 24.57267355 -10.90823884 28.72031463 -13.12524414 32.84399414 C-17.92249192 41.77310197 -22.33246456 50.85331775 -26.640625 60.02734375 C-27.02557129 60.83840576 -27.41051758 61.64946777 -27.80712891 62.48510742 C-28.64640487 64.25452652 -29.47594168 66.02858174 -30.29833984 67.8059082 C-30.72840332 68.71042725 -31.1584668 69.61494629 -31.6015625 70.546875 C-31.98650879 71.36897461 -32.37145508 72.19107422 -32.76806641 73.03808594 C-34 75 -34 75 -37.125 76.3125 C-40 76 -40 76 -41.9375 74.875 C-43.44213623 72.2197596 -42.78172095 70.91667094 -42 68 C-41.17096732 66.10264216 -40.27787909 64.23262006 -39.33984375 62.38671875 C-38.79714844 61.31091553 -38.25445312 60.2351123 -37.6953125 59.12670898 C-37.11523438 57.99177002 -36.53515625 56.85683105 -35.9375 55.6875 C-34.74864504 53.33856843 -33.55984284 50.98961015 -32.37109375 48.640625 C-31.79214355 47.50173828 -31.21319336 46.36285156 -30.61669922 45.18945312 C-28.88578171 41.77466811 -27.17951738 38.34843076 -25.48095703 34.91748047 C-22.91186056 29.73197216 -20.29380553 24.59228467 -17.421875 19.56640625 C-16.16565784 17.2990033 -14.95956252 15.0153936 -13.765625 12.71484375 C-13.1612561 11.55456665 -13.1612561 11.55456665 -12.54467773 10.37084961 C-11.73225712 8.80766027 -10.92436553 7.24210759 -10.12133789 5.67407227 C-9.7474292 4.95662842 -9.37352051 4.23918457 -8.98828125 3.5 C-8.65352783 2.8503125 -8.31877441 2.200625 -7.97387695 1.53125 C-5.82972948 -1.8400443 -3.43416924 -0.88055622 0 0 Z " fill="#D1D622" transform="translate(76,79)"/>
<path d="M0 0 C0.66 0 1.32 0 2 0 C2.495 1.98 2.495 1.98 3 4 C3.66 3.67 4.32 3.34 5 3 C5 4.65 5 6.3 5 8 C5.99 8 6.98 8 8 8 C8.33 6.68 8.66 5.36 9 4 C9.66 4 10.32 4 11 4 C9.56757443 8.8168093 7.47567227 13.05636498 5.0625 17.4375 C0.79126185 25.34039028 -3.11217212 33.39091925 -6.95800781 41.5078125 C-10.85698073 49.7313018 -14.88768729 57.88142276 -19 66 C-19.33 65.34 -19.66 64.68 -20 64 C-21.32 64 -22.64 64 -24 64 C-24 62.68 -24 61.36 -24 60 C-24.99 60 -25.98 60 -27 60 C-26.773125 60.763125 -26.54625 61.52625 -26.3125 62.3125 C-26.209375 63.199375 -26.10625 64.08625 -26 65 C-27.375 66.5625 -27.375 66.5625 -29 68 C-29.12375 68.680625 -29.2475 69.36125 -29.375 70.0625 C-29.58125 70.701875 -29.7875 71.34125 -30 72 C-32.5625 73.25 -32.5625 73.25 -35 74 C-33.09780934 67.61609011 -30.58341036 61.95040582 -27.375 56.125 C-23.33149769 48.6366729 -19.5766372 41.06160396 -16.04443359 33.31884766 C-14.01361765 28.92145674 -11.72646455 25.01971571 -9 21 C-8.10232381 19.16650274 -7.24552866 17.31223316 -6.4375 15.4375 C-5.21363717 12.60857115 -3.98579803 9.97649091 -2.390625 7.3359375 C-0.91480837 4.85689721 -0.40534919 2.83744431 0 0 Z " fill="#312E6F" transform="translate(77,80)"/>
<path d="M0 0 C0.495 0.99 0.495 0.99 1 2 C0.34 2.99 -0.32 3.98 -1 5 C-1.24055468 7.05709596 -1.24055468 7.05709596 -1.125 9.1875 C-1.08375 10.445625 -1.0425 11.70375 -1 13 C-0.01 13.33 0.98 13.66 2 14 C0.02 14.99 0.02 14.99 -2 16 C-1.34 17.32 -0.68 18.64 0 20 C0.33 18.68 0.66 17.36 1 16 C1.66 16 2.32 16 3 16 C3.33 15.34 3.66 14.68 4 14 C3.39496467 17.67789142 2.36302514 20.69193584 0.75 24.046875 C0.08484375 25.43712891 0.08484375 25.43712891 -0.59375 26.85546875 C-1.0578125 27.81066406 -1.521875 28.76585938 -2 29.75 C-2.4640625 30.72066406 -2.928125 31.69132812 -3.40625 32.69140625 C-6.85074124 39.85074124 -6.85074124 39.85074124 -8 41 C-8 43.31 -8 45.62 -8 48 C7.84 48 23.68 48 40 48 C40.99 45.03 40.99 45.03 42 42 C42.33 42 42.66 42 43 42 C43.36613231 47.49198466 43.36613231 47.49198466 41.79069519 49.67793274 C39.44733114 51.4080345 38.05887307 51.3629219 35.16137695 51.34057617 C34.1805867 51.34034958 33.19979645 51.34012299 32.18928528 51.33988953 C31.13295395 51.32440567 30.07662262 51.30892181 28.98828125 51.29296875 C27.90491989 51.28872391 26.82155853 51.28447906 25.70536804 51.28010559 C22.24082723 51.26329569 18.77686538 51.22563848 15.3125 51.1875 C12.96550318 51.17245619 10.61849726 51.15876726 8.27148438 51.14648438 C2.5140994 51.11338447 -3.2428521 51.0615856 -9 51 C-9.66 48.03 -10.32 45.06 -11 42 C-11.99 42.99 -12.98 43.98 -14 45 C-14.66 45 -15.32 45 -16 45 C-15.67 45.99 -15.34 46.98 -15 48 C-15.66 48 -16.32 48 -17 48 C-17 45.69 -17 43.38 -17 41 C-18.91317912 44.24855246 -20.68600995 47.46070423 -22 51 C-21.23445086 54.30164047 -21.23445086 54.30164047 -20 57 C-21.25 59.375 -21.25 59.375 -23 61 C-23.66 61 -24.32 61 -25 61 C-24.67 59.68 -24.34 58.36 -24 57 C-25.65 57.66 -27.3 58.32 -29 59 C-29 59.99 -29 60.98 -29 62 C-28.34 62 -27.68 62 -27 62 C-27.38263478 64.77410214 -27.71340714 65.76887672 -29.9375 67.5625 C-30.618125 68.036875 -31.29875 68.51125 -32 69 C-33.93798263 71.77260299 -33.93798263 71.77260299 -35 74 C-35.66 73.67 -36.32 73.34 -37 73 C-32.89285756 64.0400049 -28.6443486 55.1954018 -24 46.5 C-20.83274236 40.56875415 -17.81362933 34.607058 -15 28.5 C-12.03442375 22.06807629 -8.86302479 15.76675963 -5.5625 9.5 C-4.90604492 8.25186523 -4.90604492 8.25186523 -4.23632812 6.97851562 C-1.13539567 1.13539567 -1.13539567 1.13539567 0 0 Z " fill="#38375D" transform="translate(101,80)"/>
<path d="M0 0 C6.2096275 2.90183561 8.57651669 5.7002089 11.375 11.875 C11.71660156 12.56980469 12.05820313 13.26460937 12.41015625 13.98046875 C14.29119729 17.92842446 15.75485119 21.57441878 16 26 C15.34 26.99 14.68 27.98 14 29 C11.94395447 29.36749268 11.94395447 29.36749268 9.38256836 29.35644531 C8.42495102 29.35944641 7.46733368 29.36244751 6.48069763 29.36553955 C5.44421585 29.35319275 4.40773407 29.34084595 3.33984375 29.328125 C2.27963516 29.32625183 1.21942657 29.32437866 0.12709045 29.32244873 C-2.11655822 29.31571839 -4.36019497 29.30178459 -6.60375977 29.28125 C-10.05170501 29.25009753 -13.49919363 29.24028134 -16.94726562 29.234375 C-19.12240145 29.22520545 -21.29753259 29.21482983 -23.47265625 29.203125 C-24.51116226 29.19887512 -25.54966827 29.19462524 -26.61964417 29.19024658 C-27.57410934 29.18063904 -28.52857452 29.17103149 -29.51196289 29.16113281 C-30.35642471 29.15430481 -31.20088654 29.14747681 -32.07093811 29.14044189 C-34 29 -34 29 -35 28 C-35.7369385 21.5601624 -33.64940305 17.58104859 -30.5 12.0625 C-29.85611328 10.89364258 -29.85611328 10.89364258 -29.19921875 9.70117188 C-28.14590069 7.79349583 -27.07472631 5.8956978 -26 4 C-25.67 5.32 -25.34 6.64 -25 8 C-25.66 8 -26.32 8 -27 8 C-26.814375 8.639375 -26.62875 9.27875 -26.4375 9.9375 C-26.293125 10.618125 -26.14875 11.29875 -26 12 C-26.33 12.33 -26.66 12.66 -27 13 C-26.71269945 15.33944736 -26.38063221 17.6739143 -26 20 C-25.01 19.67 -24.02 19.34 -23 19 C-23 19.66 -23 20.32 -23 21 C-21.44152344 20.98259766 -21.44152344 20.98259766 -19.8515625 20.96484375 C-12.16973651 20.9058662 -4.63067795 20.97279335 3 22 C2.97679687 21.39671875 2.95359375 20.7934375 2.9296875 20.171875 C2.91164062 19.37265625 2.89359375 18.5734375 2.875 17.75 C2.85179687 16.96109375 2.82859375 16.1721875 2.8046875 15.359375 C3.0171622 12.79268059 3.71345895 11.2083933 5 9 C4.195625 8.731875 3.39125 8.46375 2.5625 8.1875 C1.2940625 7.5996875 1.2940625 7.5996875 0 7 C-1.04449911 3.86650268 -0.93423645 3.01031744 0 0 Z " fill="#D1D526" transform="translate(127,100)"/>
<path d="M0 0 C2.75 -0.375 2.75 -0.375 6 0 C10.06267309 4.62693324 11.46419587 9.70863177 12.4375 15.6875 C12 18 12 18 10.0625 20.25 C6.07208155 22.53023911 2.53134634 22.80255572 -2 23 C-2.1546875 24.485 -2.1546875 24.485 -2.3125 26 C-2.93911948 30.32455701 -4.21084321 34.00880408 -6 38 C-7.485 38.495 -7.485 38.495 -9 39 C-9 39.66 -9 40.32 -9 41 C-9.66 41 -10.32 41 -11 41 C-11.495 43.475 -11.495 43.475 -12 46 C-12.99 45.01 -13.98 44.02 -15 43 C-14.67 42.01 -14.34 41.02 -14 40 C-12.515 39.505 -12.515 39.505 -11 39 C-11.66 38.67 -12.32 38.34 -13 38 C-14.75451482 30.98194071 -13.20427124 27.26330639 -10 21 C-9.10892845 19.1091514 -8.23423462 17.21114298 -7.359375 15.31274414 C-4.9877987 10.16700139 -2.55590004 5.05741922 0 0 Z " fill="#2C2B70" transform="translate(113,55)"/>
<path d="M0 0 C4.32941327 2.24796458 7.44334905 4.83360586 10 9 C10.5089825 11.66081939 10.73000108 14.30001078 11 17 C11.66 17.33 12.32 17.66 13 18 C14.44504746 22.21472177 13.60642307 24.9366946 12 29 C9.64046906 26.64046906 9.50858587 25.22104383 9 22 C8.34 22 7.68 22 7 22 C4 16.25 4 16.25 4 14 C3.34 13.67 2.68 13.34 2 13 C2 12.34 2 11.68 2 11 C-1.82989106 9.19769832 -4.78121808 8.80377759 -9 9 C-9.66 11.31 -10.32 13.62 -11 16 C-11.66 16 -12.32 16 -13 16 C-13.0825 17.010625 -13.165 18.02125 -13.25 19.0625 C-13.84829052 23.39130789 -15.69258091 26.32255082 -18 30 C-18.33 30.66 -18.66 31.32 -19 32 C-19.66 32 -20.32 32 -21 32 C-21.33 32.66 -21.66 33.32 -22 34 C-22.33 32.35 -22.66 30.7 -23 29 C-22.34 29 -21.68 29 -21 29 C-21.08121094 28.28457031 -21.16242188 27.56914063 -21.24609375 26.83203125 C-21.81457303 17.86398064 -19.41113964 11.18822979 -14 4 C-9.22938765 0.26322793 -5.92522886 -1.17319531 0 0 Z " fill="#CFD71D" transform="translate(120,45)"/>
<path d="M0 0 C0.66 0 1.32 0 2 0 C4.67884959 4.9935837 7.34517415 9.99360496 10 15 C10.46921875 15.88171875 10.9384375 16.7634375 11.421875 17.671875 C14 22.64130435 14 22.64130435 14 26 C5.42 26 -3.16 26 -12 26 C-9.75222778 19.25668333 -9.75222778 19.25668333 -8.125 16.30859375 C-7.77953125 15.67373047 -7.4340625 15.03886719 -7.078125 14.38476562 C-6.72234375 13.74216797 -6.3665625 13.09957031 -6 12.4375 C-3.75544444 8.35907749 -1.6145124 4.38104668 0 0 Z " fill="#2F2D6B" transform="translate(116,94)"/>
<path d="M0 0 C2.32479534 2.14800003 3.85514519 4.24917509 5.375 7.01953125 C5.80296875 7.79490234 6.2309375 8.57027344 6.671875 9.36914062 C7.32929688 10.57860352 7.32929688 10.57860352 8 11.8125 C8.43828125 12.60720703 8.8765625 13.40191406 9.328125 14.22070312 C16 26.36874059 16 26.36874059 16 29 C15.01 28.67 14.02 28.34 13 28 C11.8125 24.4375 11.8125 24.4375 11 21 C10.01 21 9.02 21 8 21 C8.33 22.32 8.66 23.64 9 25 C8.34 25 7.68 25 7 25 C7.33 28.63 7.66 32.26 8 36 C5.85527073 32.7829061 4.11168935 29.44513986 2.375 26 C1.88773438 25.05640625 1.88773438 25.05640625 1.390625 24.09375 C-0.06828913 21.2004413 -1 19.28547979 -1 16 C-4.37400578 15.58274322 -4.37400578 15.58274322 -8 16 C-9.86250805 18.21491684 -9.86250805 18.21491684 -11 21 C-11.99 22.32 -12.98 23.64 -14 25 C-13.34 21.7 -12.68 18.4 -12 15 C-9.89625 14.5978125 -9.89625 14.5978125 -7.75 14.1875 C-2.82771268 13.11577431 -2.82771268 13.11577431 1 10 C1.45627547 6.53230644 0.77470902 3.38935196 0 0 Z " fill="#2F2A69" transform="translate(123,63)"/>
<path d="M0 0 C1.13864162 3.41592487 0.84292788 4.21442309 -0.3125 7.5 C-0.57675781 8.2734375 -0.84101562 9.046875 -1.11328125 9.84375 C-2 12 -2 12 -4 15 C-4.66 15 -5.32 15 -6 15 C-6.33 18.3 -6.66 21.6 -7 25 C-7.33 24.34 -7.66 23.68 -8 23 C-8.66 23 -9.32 23 -10 23 C-9.67 26.3 -9.34 29.6 -9 33 C-8.34 31.68 -7.68 30.36 -7 29 C-6.34 29 -5.68 29 -5 29 C-5 27.02 -5 25.04 -5 23 C-4.01 23.33 -3.02 23.66 -2 24 C-2 23.01 -2 22.02 -2 21 C-1.34 21 -0.68 21 0 21 C-1.51613453 26.00402952 -3.59914319 30.53223919 -5.9375 35.1875 C-6.28490234 35.89841797 -6.63230469 36.60933594 -6.99023438 37.34179688 C-7.33248047 38.02693359 -7.67472656 38.71207031 -8.02734375 39.41796875 C-8.33406006 40.03438232 -8.64077637 40.6507959 -8.95678711 41.28588867 C-10.11967241 43.19663469 -11.27155775 44.57798214 -13 46 C-16.34192692 45.75546876 -17.60543557 45.39456443 -20 43 C-19.63811249 38.98810731 -18.07760978 35.80557579 -16.26953125 32.24609375 C-15.71330078 31.14330078 -15.15707031 30.04050781 -14.58398438 28.90429688 C-13.99939453 27.76025391 -13.41480469 26.61621094 -12.8125 25.4375 C-12.24724609 24.32052734 -11.68199219 23.20355469 -11.09960938 22.05273438 C-9.96784782 19.81643576 -8.83391416 17.58123502 -7.69775391 15.34716797 C-5.10879126 10.24295774 -2.55323436 5.12215412 0 0 Z " fill="#C8CF37" transform="translate(53,109)"/>
<path d="M0 0 C3 1 3 1 4.640625 3.87109375 C5.17171875 5.04800781 5.7028125 6.22492188 6.25 7.4375 C6.79140625 8.61183594 7.3328125 9.78617188 7.890625 10.99609375 C8.25671875 11.98738281 8.6228125 12.97867188 9 14 C8.67 14.66 8.34 15.32 8 16 C7.01 15.34 6.02 14.68 5 14 C4.67 15.65 4.34 17.3 4 19 C5.65 19.99 7.3 20.98 9 22 C8.835 23.03125 8.67 24.0625 8.5 25.125 C8.06678152 28.48244326 7.91764297 31.62336157 8 35 C4.73078124 36.08973959 2.86141078 35.96637028 -0.54296875 35.66015625 C-1.61611328 35.56669922 -2.68925781 35.47324219 -3.79492188 35.37695312 C-4.91447266 35.27318359 -6.03402344 35.16941406 -7.1875 35.0625 C-8.31865234 34.96259766 -9.44980469 34.86269531 -10.61523438 34.75976562 C-13.41070135 34.51206602 -16.2055228 34.25858963 -19 34 C-19 33.67 -19 33.34 -19 33 C-10.42 33 -1.84 33 7 33 C3.4717553 25.65502559 3.4717553 25.65502559 -0.06005859 18.31176758 C-0.50172363 17.39032959 -0.94338867 16.4688916 -1.3984375 15.51953125 C-1.84880371 14.58214111 -2.29916992 13.64475098 -2.76318359 12.67895508 C-3.93170556 10.14792635 -4.99047622 7.59797853 -6 5 C-4.68 5.33 -3.36 5.66 -2 6 C-1.34 4.02 -0.68 2.04 0 0 Z " fill="#CBD032" transform="translate(123,87)"/>
<path d="M0 0 C2.9375 0.9375 2.9375 0.9375 6 3 C6.84403097 5.99392117 6.98699834 8.89910366 7 12 C7.66 12 8.32 12 9 12 C8.690625 13.216875 8.38125 14.43375 8.0625 15.6875 C7.28842823 18.7782972 6.58737312 21.86734334 6 25 C4.35 25 2.7 25 1 25 C1 25.66 1 26.32 1 27 C-6.59 27 -14.18 27 -22 27 C-22 26.34 -22 25.68 -22 25 C-19.69 25 -17.38 25 -15 25 C-15 24.34 -15 23.68 -15 23 C-17.64 23 -20.28 23 -23 23 C-23 22.67 -23 22.34 -23 22 C-14.42 22 -5.84 22 3 22 C3 19.03 3 16.06 3 13 C3.66 11.68 4.32 10.36 5 9 C4.195625 8.731875 3.39125 8.46375 2.5625 8.1875 C1.716875 7.795625 0.87125 7.40375 0 7 C-1.04449911 3.86650268 -0.93423645 3.01031744 0 0 Z " fill="#D0D91F" transform="translate(127,100)"/>
<path d="M0 0 C2.72363989 3.37933097 4.76722701 7.03184742 6.75 10.875 C7.24306641 11.77412109 7.24306641 11.77412109 7.74609375 12.69140625 C9.8901686 16.86194846 10.31835976 19.49336204 9 24 C8 25 8 25 6.05747986 25.12025452 C5.20698563 25.11803391 4.35649139 25.11581329 3.48022461 25.11352539 C2.03884377 25.11341209 2.03884377 25.11341209 0.56834412 25.11329651 C-0.476436 25.10813522 -1.52121613 25.10297394 -2.59765625 25.09765625 C-3.66165146 25.0962413 -4.72564667 25.09482635 -5.82188416 25.09336853 C-9.23545083 25.08775064 -12.648953 25.07519511 -16.0625 25.0625 C-18.37044176 25.05748731 -20.67838455 25.052924 -22.98632812 25.04882812 C-28.65757426 25.0377754 -34.32878253 25.02101987 -40 25 C-40 24.67 -40 24.34 -40 24 C-26.47 24 -12.94 24 1 24 C1 23.34 1 22.68 1 22 C-0.98 22 -2.96 22 -5 22 C-5 21.67 -5 21.34 -5 21 C-3.35 20.67 -1.7 20.34 0 20 C0.04898438 19.38511719 0.09796875 18.77023438 0.1484375 18.13671875 C0.22320312 17.32847656 0.29796875 16.52023438 0.375 15.6875 C0.44460937 14.88699219 0.51421875 14.08648437 0.5859375 13.26171875 C1 11 1 11 3 8 C2.34 8 1.68 8 1 8 C0.505 4.04 0.505 4.04 0 0 Z " fill="#CED239" transform="translate(133,104)"/>
<path d="M0 0 C-2 2 -2 2 -5.125 2.125 C-6.07375 2.08375 -7.0225 2.0425 -8 2 C-8.46841309 3.05912598 -8.46841309 3.05912598 -8.94628906 4.13964844 C-10.37137502 7.34741039 -11.81050483 10.54867995 -13.25 13.75 C-13.74113281 14.86117187 -14.23226562 15.97234375 -14.73828125 17.1171875 C-15.22167969 18.18710938 -15.70507812 19.25703125 -16.203125 20.359375 C-16.64301758 21.34389648 -17.08291016 22.32841797 -17.53613281 23.34277344 C-19.04624141 26.08393788 -20.68719849 27.91241511 -23 30 C-23 28.68 -23 27.36 -23 26 C-24.32 26 -25.64 26 -27 26 C-27.99 26 -28.98 26 -30 26 C-28.35433477 20.31497465 -25.70967216 15.23318364 -23 10 C-22.67 10 -22.34 10 -22 10 C-21.77754607 11.60226955 -21.57253331 13.20696767 -21.375 14.8125 C-21.25898437 15.70582031 -21.14296875 16.59914063 -21.0234375 17.51953125 C-21 20 -21 20 -23 23 C-22.01 23 -21.02 23 -20 23 C-19.67 20.36 -19.34 17.72 -19 15 C-18.34 15.33 -17.68 15.66 -17 16 C-16.80664062 15.36191406 -16.61328125 14.72382812 -16.4140625 14.06640625 C-16.15367188 13.24011719 -15.89328125 12.41382812 -15.625 11.5625 C-15.36976562 10.73878906 -15.11453125 9.91507813 -14.8515625 9.06640625 C-14 7 -14 7 -12 6 C-12 4.68 -12 3.36 -12 2 C-11.34 2 -10.68 2 -10 2 C-10 1.34 -10 0.68 -10 0 C-6.7169902 -1.6415049 -3.57454967 -0.51888624 0 0 Z " fill="#C3CB38" transform="translate(121,54)"/>
<path d="M0 0 C0.66 0 1.32 0 2 0 C2 0.66 2 1.32 2 2 C2.99 2.33 3.98 2.66 5 3 C5.67939174 4.99571323 6.34561559 6.99594773 7 9 C7.99 9.66 8.98 10.32 10 11 C10.6875 13.625 10.6875 13.625 11 16 C12.56272189 11.60746227 12.56272189 11.60746227 13 7 C11.68 6.67 10.36 6.34 9 6 C9.66 6 10.32 6 11 6 C10.67 4.02 10.34 2.04 10 0 C14.36102957 5.50866893 18.12369338 11.17706682 20 18 C19.34 18.33 18.68 18.66 18 19 C18 18.01 18 17.02 18 16 C17.34 16.33 16.68 16.66 16 17 C16.226875 17.928125 16.45375 18.85625 16.6875 19.8125 C16.790625 20.864375 16.89375 21.91625 17 23 C15.51953125 24.69921875 15.51953125 24.69921875 14 26 C4.23404255 8.85106383 4.23404255 8.85106383 0 0 Z " fill="#CCD02D" transform="translate(120,56)"/>
<path d="M0 0 C1.88513749 1.62807329 2.93103303 2.82311249 3.84375 5.1640625 C5.56027367 9.37418475 7.94085421 13.19002223 10.25390625 17.09179688 C13 21.79435668 13 21.79435668 13 24 C12.01 24 11.02 24 10 24 C10 23.01 10 22.02 10 21 C9.34 21 8.68 21 8 21 C7.67 21.99 7.34 22.98 7 24 C6.34 24 5.68 24 5 24 C5 22.02 5 20.04 5 18 C5.66 18 6.32 18 7 18 C6.2236068 14.9254644 6.2236068 14.9254644 4 13 C3.67 12.34 3.34 11.68 3 11 C-0.24849977 12.72226496 -0.24849977 12.72226496 -1 16 C-1.99 16 -2.98 16 -4 16 C-4.83848804 14.54462432 -5.67063934 13.08559627 -6.5 11.625 C-6.9640625 10.81289062 -7.428125 10.00078125 -7.90625 9.1640625 C-9 7 -9 7 -9 5 C-8.01 5 -7.02 5 -6 5 C-5.67 5.99 -5.34 6.98 -5 8 C-4.34 6.68 -3.68 5.36 -3 4 C-2.34 4 -1.68 4 -1 4 C-1 5.32 -1 6.64 -1 8 C-1.66 8 -2.32 8 -3 8 C-2.67 8.99 -2.34 9.98 -2 11 C-1.34 10.01 -0.68 9.02 0 8 C0.66 8 1.32 8 2 8 C1.67 7.4225 1.34 6.845 1 6.25 C0 4 0 4 0 0 Z " fill="#2F2E71" transform="translate(141,96)"/>
<path d="M0 0 C1.65 0 3.3 0 5 0 C4.67 1.32 4.34 2.64 4 4 C4.99 4.33 5.98 4.66 7 5 C6.71682074 6.60568666 6.42312209 8.20952047 6.125 9.8125 C5.96257812 10.70582031 5.80015625 11.59914062 5.6328125 12.51953125 C5 15 5 15 3 18 C0.375 18.1875 0.375 18.1875 -2 18 C-2 17.01 -2 16.02 -2 15 C-2.66 15 -3.32 15 -4 15 C-4 14.01 -4 13.02 -4 12 C-3.34 12 -2.68 12 -2 12 C-2 9.36 -2 6.72 -2 4 C-1.34 4 -0.68 4 0 4 C0 2.68 0 1.36 0 0 Z " fill="#33336B" transform="translate(59,120)"/>
<path d="M0 0 C0.625 1.75 0.625 1.75 1 4 C0.6803125 4.5878125 0.360625 5.175625 0.03125 5.78125 C-1.2689129 8.57857018 -1.19807984 10.68064663 -1.125 13.75 C-1.09792969 15.22726563 -1.09792969 15.22726563 -1.0703125 16.734375 C-1.04710938 17.48203125 -1.02390625 18.2296875 -1 19 C-1.66 18.67 -2.32 18.34 -3 18 C-2.34 18.66 -1.68 19.32 -1 20 C-0.67 18.68 -0.34 17.36 0 16 C0.99 16.33 1.98 16.66 3 17 C0.03 22.445 0.03 22.445 -3 28 C-5.12508244 24.81237635 -5.5020163 22.73487777 -6 19 C-6.45375 19.825 -6.9075 20.65 -7.375 21.5 C-8.179375 22.7375 -8.179375 22.7375 -9 24 C-9.66 24 -10.32 24 -11 24 C-9.48210922 18.94566211 -7.33199122 14.42761076 -4.9375 9.75 C-4.57333984 9.03070313 -4.20917969 8.31140625 -3.83398438 7.5703125 C-2.89258917 5.71188352 -1.94661263 3.85577685 -1 2 C-0.67 1.34 -0.34 0.68 0 0 Z " fill="#C3C83C" transform="translate(82,96)"/>
<path d="M0 0 C2.33944736 0.28730055 4.6739143 0.61936779 7 1 C7.33 2.65 7.66 4.3 8 6 C7.34 5.67 6.68 5.34 6 5 C6 4.01 6 3.02 6 2 C4.35 2.33 2.7 2.66 1 3 C-0.81602517 7.53832753 -0.81602517 7.53832753 0 12 C-1.47169811 15.73584906 -1.47169811 15.73584906 -4 17 C-4.66 17.99 -5.32 18.98 -6 20 C-6 19.34 -6 18.68 -6 18 C-6.66 18 -7.32 18 -8 18 C-8.33 19.32 -8.66 20.64 -9 22 C-9.66 22 -10.32 22 -11 22 C-11 22.99 -11 23.98 -11 25 C-11.66 25 -12.32 25 -13 25 C-11.05176364 17.92482585 -7.92109057 12.16754871 -4 6 C-3.46375 5.09765625 -2.9275 4.1953125 -2.375 3.265625 C-1 1 -1 1 0 0 Z " fill="#D2D822" transform="translate(115,78)"/>
<path d="M0 0 C0.66 0 1.32 0 2 0 C0.37697001 5.58163974 -1.67306252 10.49346727 -4.59375 15.515625 C-7.26596964 20.23654637 -9.60430151 25.13450925 -12 30 C-12.33 30 -12.66 30 -13 30 C-13 28.35 -13 26.7 -13 25 C-12.34 25 -11.68 25 -11 25 C-10.95101562 24.36191406 -10.90203125 23.72382812 -10.8515625 23.06640625 C-10.77679688 22.24011719 -10.70203125 21.41382812 -10.625 20.5625 C-10.55539063 19.73878906 -10.48578125 18.91507813 -10.4140625 18.06640625 C-10.20910156 17.04353516 -10.20910156 17.04353516 -10 16 C-9.34 15.67 -8.68 15.34 -8 15 C-8.33 14.34 -8.66 13.68 -9 13 C-10.98491642 13.26676204 -10.98491642 13.26676204 -13 14 C-13.33 14.99 -13.66 15.98 -14 17 C-14.66 17 -15.32 17 -16 17 C-14.31326082 12.50202887 -12.18326108 8.27113698 -10 4 C-8.62420173 6.66211372 -7.62936439 9.06296616 -7 12 C-6.34 12 -5.68 12 -5 12 C-5.33 11.01 -5.66 10.02 -6 9 C-5.01 8.67 -4.02 8.34 -3 8 C-2.67 7.34 -2.34 6.68 -2 6 C-2.66 6 -3.32 6 -4 6 C-4 4.35 -4 2.7 -4 1 C-3.67 1.99 -3.34 2.98 -3 4 C-2.34 4 -1.68 4 -1 4 C-0.67 2.68 -0.34 1.36 0 0 Z " fill="#C6CD3C" transform="translate(70,92)"/>
<path d="M0 0 C0.66 0 1.32 0 2 0 C2 0.66 2 1.32 2 2 C2.66 2 3.32 2 4 2 C3.67 3.32 3.34 4.64 3 6 C2.34 6 1.68 6 1 6 C0.9175 7.010625 0.835 8.02125 0.75 9.0625 C0.15170948 13.39130789 -1.69258091 16.32255082 -4 20 C-4.33 20.66 -4.66 21.32 -5 22 C-5.66 22 -6.32 22 -7 22 C-7.33 22.66 -7.66 23.32 -8 24 C-8.33 22.35 -8.66 20.7 -9 19 C-8.34 19 -7.68 19 -7 19 C-7 15.7 -7 12.4 -7 9 C-6.34 9 -5.68 9 -5 9 C-5 8.01 -5 7.02 -5 6 C-4.01 5.67 -3.02 5.34 -2 5 C-0.78130071 2.49552484 -0.78130071 2.49552484 0 0 Z " fill="#D0D720" transform="translate(106,55)"/>
<path d="M0 0 C1.65 0.33 3.3 0.66 5 1 C4 5 4 5 3.5 6.8125 C2.80581156 9.8495744 2.41540653 12.91412295 2 16 C1.01 16 0.02 16 -1 16 C-1.33 17.65 -1.66 19.3 -2 21 C-2.99 20.01 -3.98 19.02 -5 18 C-4.67 17.34 -4.34 16.68 -4 16 C-3.67 16 -3.34 16 -3 16 C-3.061875 14.845 -3.12375 13.69 -3.1875 12.5 C-3.21274356 7.78786879 -1.84474512 4.30440528 0 0 Z " fill="#D1D723" transform="translate(83,96)"/>
<path d="M0 0 C0.33 0 0.66 0 1 0 C1.50423019 5.29441695 0.18923033 7.81413519 -3 12 C-2.401875 12.268125 -1.80375 12.53625 -1.1875 12.8125 C0.97224808 13.98493467 2.35790256 15.19369282 4 17 C3.34 17.99 2.68 18.98 2 20 C2 18.68 2 17.36 2 16 C-0.62187494 17.04874998 -1.79371361 17.64931313 -3.25 20.125 C-3.4975 20.74375 -3.745 21.3625 -4 22 C-5.98 22 -7.96 22 -10 22 C-8.67491631 17.73170158 -7.03433232 13.85211968 -5 9.875 C-4.484375 8.86179687 -3.96875 7.84859375 -3.4375 6.8046875 C-2.963125 5.87914063 -2.48875 4.95359375 -2 4 C-1.3315749 2.66754733 -0.66411117 1.33460802 0 0 Z " fill="#363660" transform="translate(73,90)"/>
<path d="M0 0 C2.31 0.33 4.62 0.66 7 1 C7.12375 1.969375 7.2475 2.93875 7.375 3.9375 C7.58125 4.948125 7.7875 5.95875 8 7 C8.66 7.33 9.32 7.66 10 8 C11.44504746 12.21472177 10.60642307 14.9366946 9 19 C6.64046906 16.64046906 6.50858587 15.22104383 6 12 C5.34 12 4.68 12 4 12 C1 6.25 1 6.25 1 4 C0.34 3.67 -0.32 3.34 -1 3 C-0.67 2.01 -0.34 1.02 0 0 Z " fill="#D1D71F" transform="translate(123,55)"/>
<path d="M0 0 C0.33 0.33 0.66 0.66 1 1 C0.53017945 7.34257749 0.53017945 7.34257749 -1.5625 9.9375 C-2.036875 10.288125 -2.51125 10.63875 -3 11 C-4.32 9.02 -5.64 7.04 -7 5 C-7.433125 6.134375 -7.86625 7.26875 -8.3125 8.4375 C-8.869375 9.613125 -9.42625 10.78875 -10 12 C-10.99 12.33 -11.98 12.66 -13 13 C-11.58465326 8.16423199 -9.6634683 4.24490261 -7 0 C-4.31633121 -1.3418344 -2.84719317 -0.73004953 0 0 Z " fill="#CED32A" transform="translate(76,79)"/>
<path d="M0 0 C0.99 0 1.98 0 3 0 C6.54717649 4.20406102 6.2659662 7.76933149 6 13 C7.32 13 8.64 13 10 13 C10 13.99 10 14.98 10 16 C9.34 16 8.68 16 8 16 C8 17.32 8 18.64 8 20 C7.34 20 6.68 20 6 20 C6 19.34 6 18.68 6 18 C5.34 17.67 4.68 17.34 4 17 C3.855625 16.34 3.71125 15.68 3.5625 15 C3.376875 14.34 3.19125 13.68 3 13 C2.01 12.67 1.02 12.34 0 12 C0.875 7.25 0.875 7.25 2 5 C1.34 4.67 0.68 4.34 0 4 C0 2.68 0 1.36 0 0 Z " fill="#D2D722" transform="translate(135,72)"/>
<path d="M0 0 C0 0.99 0 1.98 0 3 C0.66 3 1.32 3 2 3 C2 3.66 2 4.32 2 5 C1.505 4.835 1.01 4.67 0.5 4.5 C-4.64625904 3.47074819 -8.30286258 3.14476714 -12.984375 5.50390625 C-16.78816042 8.65237631 -18.36311159 11.81914849 -20.375 16.25 C-20.90673828 17.36761719 -20.90673828 17.36761719 -21.44921875 18.5078125 C-22.314334 20.33156897 -23.15925886 22.16487974 -24 24 C-24.33 24 -24.66 24 -25 24 C-25 22.35 -25 20.7 -25 19 C-24.34 19 -23.68 19 -23 19 C-22.01 15.7 -21.02 12.4 -20 9 C-19.34 9 -18.68 9 -18 9 C-17.938125 8.4225 -17.87625 7.845 -17.8125 7.25 C-16.58458735 3.84962651 -15.11353007 2.84270147 -12 1 C-8.02061349 0.24291546 -4.04636809 0 0 0 Z " fill="#3B364E" transform="translate(122,42)"/>
<path d="M0 0 C0.66 0.66 1.32 1.32 2 2 C-0.64 1.67 -3.28 1.34 -6 1 C-6 1.66 -6 2.32 -6 3 C-7.59590754 4.99488442 -8.42588619 5.92150788 -11 6.2734375 C-11.66 6.51320313 -12.32 6.75296875 -13 7 C-14.14293555 9.31315325 -14.14293555 9.31315325 -14.75 12.0625 C-14.99234375 12.98160156 -15.2346875 13.90070312 -15.484375 14.84765625 C-15.65453125 15.55792969 -15.8246875 16.26820312 -16 17 C-16.99 16.67 -17.98 16.34 -19 16 C-19 16.99 -19 17.98 -19 19 C-19.66 19 -20.32 19 -21 19 C-19.1122063 12.30691326 -16.36633495 6.15599407 -11.1875 1.4375 C-7.03373968 -0.43576446 -4.52449015 -0.45244902 0 0 Z " fill="#BEC148" transform="translate(120,45)"/>
<path d="M0 0 C1.47529342 3.83576288 0.34639643 6.24859009 -1 10 C1.62527189 10.05382106 4.24944713 10.09358313 6.875 10.125 C7.99455078 10.15013672 7.99455078 10.15013672 9.13671875 10.17578125 C11.09194461 10.1933959 13.04742021 10.10320189 15 10 C15.66 9.34 16.32 8.68 17 8 C16.67 7.67 16.34 7.34 16 7 C15.95919217 5.00041636 15.95745644 2.99954746 16 1 C21 7.36363636 21 7.36363636 21 12 C12.42 12 3.84 12 -5 12 C-3.54996379 7.64989137 -2.09990776 4.00891482 0 0 Z " fill="#3E3D46" transform="translate(109,108)"/>
<path d="M0 0 C0.66 0 1.32 0 2 0 C0.4719611 5.09882455 -1.71036856 9.65665659 -4.125 14.375 C-4.49753906 15.11105469 -4.87007813 15.84710938 -5.25390625 16.60546875 C-6.1656122 18.40550358 -7.08229932 20.20301402 -8 22 C-10 20 -10 20 -10.125 16.875 C-10.08375 15.92625 -10.0425 14.9775 -10 14 C-9.34 14 -8.68 14 -8 14 C-8.33 12.68 -8.66 11.36 -9 10 C-8.34 10 -7.68 10 -7 10 C-6.67 9.01 -6.34 8.02 -6 7 C-5.67 7.66 -5.34 8.32 -5 9 C-4.34 9 -3.68 9 -3 9 C-3.33 7.35 -3.66 5.7 -4 4 C-3.01 4 -2.02 4 -1 4 C-0.67 2.68 -0.34 1.36 0 0 Z " fill="#333064" transform="translate(86,84)"/>
<path d="M0 0 C1.13864162 3.41592487 0.84292788 4.21442309 -0.3125 7.5 C-0.70888672 8.66015625 -0.70888672 8.66015625 -1.11328125 9.84375 C-2 12 -2 12 -4 15 C-4.66 15 -5.32 15 -6 15 C-6.33 18.3 -6.66 21.6 -7 25 C-7.33 24.34 -7.66 23.68 -8 23 C-8.66 23 -9.32 23 -10 23 C-10 24.32 -10 25.64 -10 27 C-10.66 27 -11.32 27 -12 27 C-12 28.32 -12 29.64 -12 31 C-12.66 31 -13.32 31 -14 31 C-14 31.99 -14 32.98 -14 34 C-14.66 34 -15.32 34 -16 34 C-14.38151398 28.64255163 -12.09535819 23.72211257 -9.6875 18.6875 C-9.30916016 17.88376953 -8.93082031 17.08003906 -8.54101562 16.25195312 C-5.9054755 10.70884589 -3.04140258 5.33064752 0 0 Z " fill="#BEC547" transform="translate(53,109)"/>
<path d="M0 0 C0.33 1.32 0.66 2.64 1 4 C-2.63 4 -6.26 4 -10 4 C-10 4.66 -10 5.32 -10 6 C-5.05 6 -0.1 6 5 6 C3 8 3 8 -0.6953125 8.1953125 C-2.17200108 8.182009 -3.64862358 8.15814835 -5.125 8.125 C-5.87910156 8.11597656 -6.63320312 8.10695313 -7.41015625 8.09765625 C-9.27357254 8.0740687 -11.13682593 8.03819719 -13 8 C-13.33 7.01 -13.66 6.02 -14 5 C-12 3 -12 3 -9 1 C-6.73828125 1.0234375 -6.73828125 1.0234375 -4.3125 1.375 C-3.50425781 1.48585938 -2.69601563 1.59671875 -1.86328125 1.7109375 C-0.94095703 1.85402344 -0.94095703 1.85402344 0 2 C0 1.34 0 0.68 0 0 Z " fill="#2F2B78" transform="translate(121,111)"/>
<path d="M0 0 C1.66666667 0 3.33333333 0 5 0 C5 1.32 5 2.64 5 4 C4.34 4 3.68 4 3 4 C2.44541444 5.66375667 1.89903223 7.33055692 1.38671875 9.0078125 C1.15597656 9.70648438 0.92523438 10.40515625 0.6875 11.125 C0.46449219 11.82882813 0.24148437 12.53265625 0.01171875 13.2578125 C-0.32214844 13.83273438 -0.65601562 14.40765625 -1 15 C-2.32 15.33 -3.64 15.66 -5 16 C-5 12.7 -5 9.4 -5 6 C-4.34 5.67 -3.68 5.34 -3 5 C-2.34 5.33 -1.68 5.66 -1 6 C-0.67 4.02 -0.34 2.04 0 0 Z " fill="#2B2A71" transform="translate(70,106)"/>
<path d="M0 0 C0.33 0.66 0.66 1.32 1 2 C-0.17633324 4.64972033 -1.40817981 7.18583676 -2.75 9.75 C-3.29140625 10.80574219 -3.29140625 10.80574219 -3.84375 11.8828125 C-4.55494203 13.26912161 -5.26907375 14.65392709 -5.98632812 16.03710938 C-7.35035348 18.67843016 -8.67727495 21.33780654 -10 24 C-10.12375 23.360625 -10.2475 22.72125 -10.375 22.0625 C-10.58125 21.381875 -10.7875 20.70125 -11 20 C-11.66 19.67 -12.32 19.34 -13 19 C-12.690625 18.401875 -12.38125 17.80375 -12.0625 17.1875 C-10.89790296 14.91043228 -10.89790296 14.91043228 -10 12 C-9.01 12 -8.02 12 -7 12 C-7 11.34 -7 10.68 -7 10 C-6.34 10 -5.68 10 -5 10 C-4.731875 8.72125 -4.46375 7.4425 -4.1875 6.125 C-3.42809901 2.50324145 -3.29922197 2.19948132 0 0 Z " fill="#C8CF39" transform="translate(115,94)"/>
<path d="M0 0 C-0.66 0.66 -1.32 1.32 -2 2 C-3.98 2 -5.96 2 -8 2 C-11.63 9.92 -15.26 17.84 -19 26 C-19.33 26 -19.66 26 -20 26 C-19.67 22.37 -19.34 18.74 -19 15 C-18.34 15.33 -17.68 15.66 -17 16 C-16.80664062 15.36191406 -16.61328125 14.72382812 -16.4140625 14.06640625 C-16.15367188 13.24011719 -15.89328125 12.41382812 -15.625 11.5625 C-15.36976562 10.73878906 -15.11453125 9.91507813 -14.8515625 9.06640625 C-14 7 -14 7 -12 6 C-12 4.68 -12 3.36 -12 2 C-11.34 2 -10.68 2 -10 2 C-10 1.34 -10 0.68 -10 0 C-6.7169902 -1.6415049 -3.57454967 -0.51888624 0 0 Z " fill="#BDC148" transform="translate(121,54)"/>
<path d="M0 0 C0.66 0 1.32 0 2 0 C2.89130413 2.6739124 3.47731534 5.23723823 4 8 C3.34 8 2.68 8 2 8 C2.33 10.64 2.66 13.28 3 16 C0.36 15.01 -2.28 14.02 -5 13 C-4.54625 12.154375 -4.0925 11.30875 -3.625 10.4375 C-1.97141586 6.93953355 -0.96990479 3.73040305 0 0 Z " fill="#2B286D" transform="translate(74,90)"/>
<path d="M0 0 C0.66 0.33 1.32 0.66 2 1 C-2.66666667 10.33333333 -7.33333333 19.66666667 -12 29 C-13.13583456 25.28272326 -12.66670026 23.52948291 -11 20 C-10.34 20 -9.68 20 -9 20 C-8.814375 18.0509375 -8.814375 18.0509375 -8.625 16.0625 C-8.4140625 13.84765625 -8.4140625 13.84765625 -8 12 C-7.34 11.67 -6.68 11.34 -6 11 C-5.26924352 8.6859378 -4.59861742 6.35171131 -4 4 C-3.01 4 -2.02 4 -1 4 C-0.67 2.68 -0.34 1.36 0 0 Z " fill="#383550" transform="translate(58,96)"/>
<path d="M0 0 C1.69141656 0.08963062 3.37959602 0.24577676 5.0625 0.4375 C6.44115234 0.59025391 6.44115234 0.59025391 7.84765625 0.74609375 C8.55792969 0.82988281 9.26820312 0.91367188 10 1 C10 1.99 10 2.98 10 4 C8.8553125 3.6596875 8.8553125 3.6596875 7.6875 3.3125 C5.07351707 2.70309033 5.07351707 2.70309033 3.5625 4.03125 C1.33348648 6.83980703 -0.14310379 9.97296343 -1.6875 13.1875 C-2.16799805 14.16879883 -2.16799805 14.16879883 -2.65820312 15.16992188 C-3.44428292 16.77727907 -4.22288683 18.38828858 -5 20 C-6.31625194 17.36749612 -5.74813658 16.19820944 -5.0625 13.375 C-4.86785156 12.55773437 -4.67320313 11.74046875 -4.47265625 10.8984375 C-4.31667969 10.27195312 -4.16070312 9.64546875 -4 9 C-3.01 9 -2.02 9 -1 9 C-1.020625 7.700625 -1.04125 6.40125 -1.0625 5.0625 C-1.08399454 3.70834367 -1.07148199 2.35243917 -1 1 C-0.67 0.67 -0.34 0.34 0 0 Z " fill="#47444D" transform="translate(66,76)"/>
<path d="M0 0 C0.66 0.33 1.32 0.66 2 1 C2.4140625 3.06640625 2.4140625 3.06640625 2.625 5.5625 C2.69976562 6.38878906 2.77453125 7.21507813 2.8515625 8.06640625 C2.90054688 8.70449219 2.94953125 9.34257813 3 10 C2.01 10.33 1.02 10.66 0 11 C0 11.99 0 12.98 0 14 C-1.32 13.67 -2.64 13.34 -4 13 C-4 10.69 -4 8.38 -4 6 C-3.34 6 -2.68 6 -2 6 C-1.34 4.02 -0.68 2.04 0 0 Z " fill="#D0D821" transform="translate(75,114)"/>
<path d="M0 0 C2.475 0.495 2.475 0.495 5 1 C5.28875 1.969375 5.5775 2.93875 5.875 3.9375 C6.64214682 7.10664203 6.64214682 7.10664203 9 8 C8.67 8.66 8.34 9.32 8 10 C8.99 10.33 9.98 10.66 11 11 C12.3515625 13.546875 12.3515625 13.546875 13.625 16.75 C14.05039063 17.79671875 14.47578125 18.8434375 14.9140625 19.921875 C15.86849471 22.627244 16.52938143 25.17628861 17 28 C14.46257596 24.85842738 12.79887209 21.6062899 11 18 C9.69874908 15.60645325 8.35273774 13.23974831 7 10.875 C6.65710938 10.26785156 6.31421875 9.66070312 5.9609375 9.03515625 C4.15027174 5.8630357 2.27591341 2.85911623 0 0 Z " fill="#414243" transform="translate(124,47)"/>
<path d="M0 0 C0.66 0 1.32 0 2 0 C2 0.66 2 1.32 2 2 C2.99 2.33 3.98 2.66 5 3 C5.67939174 4.99571323 6.34561559 6.99594773 7 9 C7.99 9.66 8.98 10.32 10 11 C10.6875 14.625 10.6875 14.625 11 18 C11.66 18 12.32 18 13 18 C15.10865385 21.47307692 15.10865385 21.47307692 14.55859375 24.140625 C14.28208984 25.06101562 14.28208984 25.06101562 14 26 C4.23404255 8.85106383 4.23404255 8.85106383 0 0 Z " fill="#C1C849" transform="translate(120,56)"/>
<path d="M0 0 C2.81631641 2.49493496 4.40955981 5.26562818 6.1875 8.5625 C6.71730469 9.53316406 7.24710938 10.50382812 7.79296875 11.50390625 C9 14 9 14 9 16 C8.01 16 7.02 16 6 16 C6 15.01 6 14.02 6 13 C5.34 13 4.68 13 4 13 C3.67 13.99 3.34 14.98 3 16 C2.34 16 1.68 16 1 16 C1 14.02 1 12.04 1 10 C1.66 10 2.32 10 3 10 C2.2236068 6.9254644 2.2236068 6.9254644 0 5 C-0.125 2.375 -0.125 2.375 0 0 Z " fill="#393855" transform="translate(145,104)"/>
<path d="M0 0 C1.65 0 3.3 0 5 0 C6.02214896 3.25229215 6.18671298 4.58923143 4.75 7.75 C3 10 3 10 0 11 C-2 5.375 -2 5.375 -2 2 C-1.34 2 -0.68 2 0 2 C0 1.34 0 0.68 0 0 Z " fill="#CDD535" transform="translate(68,130)"/>
<path d="M0 0 C0.66 0 1.32 0 2 0 C4.24828052 4.49656104 4.16682272 8.07872966 4 13 C2.68 12.34 1.36 11.68 0 11 C0 10.01 0 9.02 0 8 C-0.66 8 -1.32 8 -2 8 C-2.66 6.02 -3.32 4.04 -4 2 C-3.01 2 -2.02 2 -1 2 C-0.67 1.34 -0.34 0.68 0 0 Z " fill="#D0D61D" transform="translate(153,104)"/>
<path d="M0 0 C3.12915801 2.6862618 4.7642676 5.95391929 6.6875 9.5625 C7.31011719 10.71878906 7.93273437 11.87507813 8.57421875 13.06640625 C10 16 10 16 10 18 C9.01 17.67 8.02 17.34 7 17 C5.8125 13.4375 5.8125 13.4375 5 10 C3.35 10 1.7 10 0 10 C-0.95024979 6.30458414 -0.95024979 3.69541586 0 0 Z " fill="#3C3B5A" transform="translate(129,74)"/>
<path d="M0 0 C0.8212231 3.11932321 1.33244056 5.75870453 1 9 C-0.4375 10.5625 -0.4375 10.5625 -2 12 C-2.12375 12.680625 -2.2475 13.36125 -2.375 14.0625 C-2.684375 15.0215625 -2.684375 15.0215625 -3 16 C-5.5625 17.25 -5.5625 17.25 -8 18 C-6.10463724 11.48180123 -3.4821006 5.82185199 0 0 Z " fill="#333259" transform="translate(50,136)"/>
<path d="M0 0 C0.33 0.99 0.66 1.98 1 3 C1.66 3 2.32 3 3 3 C3 4.32 3 5.64 3 7 C1.02 7.99 1.02 7.99 -1 9 C-1 10.65 -1 12.3 -1 14 C-1.99 14.33 -2.98 14.66 -4 15 C-4 11.04 -4 7.08 -4 3 C-3.01 2.67 -2.02 2.34 -1 2 C-0.67 1.34 -0.34 0.68 0 0 Z " fill="#D2D81F" transform="translate(95,77)"/>
<path d="M0 0 C3.79379058 1.49041773 5.68343758 3.69062512 8 7 C8 7.66 8 8.32 8 9 C6.39667209 9.08121924 4.79215974 9.13929134 3.1875 9.1875 C2.29417969 9.22230469 1.40085937 9.25710937 0.48046875 9.29296875 C-2.41647515 8.95081002 -3.22555028 8.24606427 -5 6 C-4.030625 5.71125 -3.06125 5.4225 -2.0625 5.125 C1.10664203 4.35785318 1.10664203 4.35785318 2 2 C1.34 2 0.68 2 0 2 C0 1.34 0 0.68 0 0 Z " fill="#CDD237" transform="translate(122,47)"/>
<path d="M0 0 C0.33 1.32 0.66 2.64 1 4 C1.66 4 2.32 4 3 4 C3 4.66 3 5.32 3 6 C2.21625 6.12375 1.4325 6.2475 0.625 6.375 C-2.19101512 7.7292184 -2.19101512 7.7292184 -2.77734375 10.359375 C-3.26935449 12.90202904 -3.68230996 15.43002979 -4 18 C-4.99 18 -5.98 18 -7 18 C-7 18.66 -7 19.32 -7 20 C-7.66 20 -8.32 20 -9 20 C-7.55676531 15.26210835 -5.62773267 11.01141849 -3.375 6.625 C-2.88773437 5.66400391 -2.88773437 5.66400391 -2.390625 4.68359375 C-1.59742593 3.12052499 -0.79922969 1.55999378 0 0 Z " fill="#484749" transform="translate(87,106)"/>
<path d="M0 0 C0.66 0 1.32 0 2 0 C3.35439668 2.70879335 3.06501451 5.00933268 3 8 C-0.26921876 9.08973959 -2.13858922 8.96637028 -5.54296875 8.66015625 C-6.61611328 8.56669922 -7.68925781 8.47324219 -8.79492188 8.37695312 C-10.47424805 8.22129883 -10.47424805 8.22129883 -12.1875 8.0625 C-13.31865234 7.96259766 -14.44980469 7.86269531 -15.61523438 7.75976562 C-18.41070135 7.51206602 -21.2055228 7.25858963 -24 7 C-24 6.67 -24 6.34 -24 6 C-15.42 6 -6.84 6 2 6 C1.34 4.02 0.68 2.04 0 0 Z " fill="#C4C741" transform="translate(128,114)"/>
<path d="M0 0 C2.0625 2.125 2.0625 2.125 4 5 C3.75 8.3125 3.75 8.3125 3 11 C1.02 11.33 -0.96 11.66 -3 12 C-4.32 10.35 -5.64 8.7 -7 7 C-5.68 6.67 -4.36 6.34 -3 6 C-2.67 6.66 -2.34 7.32 -2 8 C0.02463255 8.65213292 0.02463255 8.65213292 2 9 C2 7.35 2 5.7 2 4 C1.34 4 0.68 4 0 4 C0 2.68 0 1.36 0 0 Z " fill="#BCC14A" transform="translate(163,117)"/>
<path d="M0 0 C0.33 0.99 0.66 1.98 1 3 C1.66 3 2.32 3 3 3 C3.33 3.99 3.66 4.98 4 6 C4.99 4.68 5.98 3.36 7 2 C7.33 3.32 7.66 4.64 8 6 C7.34 6 6.68 6 6 6 C6.33 9.63 6.66 13.26 7 17 C5.14437121 14.21655681 3.45951024 11.41063093 1.8125 8.5 C1.26207031 7.5409375 0.71164063 6.581875 0.14453125 5.59375 C-1 3 -1 3 0 0 Z " fill="#353552" transform="translate(124,82)"/>
<path d="M0 0 C0.66 0 1.32 0 2 0 C0.27502493 4.6029598 -1.9095871 8.93255824 -4.125 13.3125 C-4.49753906 14.05306641 -4.87007813 14.79363281 -5.25390625 15.55664062 C-6.16744806 17.37201217 -7.08347487 19.18613282 -8 21 C-9.39195915 16.82412255 -7.82323219 14.86525224 -6 11 C-5.34 11 -4.68 11 -4 11 C-3.8453125 9.6696875 -3.8453125 9.6696875 -3.6875 8.3125 C-2.98284093 4.9173245 -2.0445434 2.78057902 0 0 Z " fill="#3D3B4B" transform="translate(73,110)"/>
<path d="M0 0 C2.75838453 3.405413 4.77231029 7.10972971 6.75 11 C7.07871094 11.61617187 7.40742188 12.23234375 7.74609375 12.8671875 C10.06889034 17.43437405 10.06889034 17.43437405 9.703125 20.4375 C9.35507813 21.2109375 9.35507813 21.2109375 9 22 C8.8453125 21.0409375 8.8453125 21.0409375 8.6875 20.0625 C8.460625 19.381875 8.23375 18.70125 8 18 C7.01 17.67 6.02 17.34 5 17 C4.855625 16.2575 4.71125 15.515 4.5625 14.75 C4.09812508 12.47972261 3.58136431 10.24240521 3 8 C2.34 8 1.68 8 1 8 C0.67 5.36 0.34 2.72 0 0 Z " fill="#C0C74D" transform="translate(133,104)"/>
<path d="M0 0 C0.66 0 1.32 0 2 0 C2.33 0.99 2.66 1.98 3 3 C3.66 3.33 4.32 3.66 5 4 C5.66 3.34 6.32 2.68 7 2 C7.33 3.65 7.66 5.3 8 7 C8.66 7 9.32 7 10 7 C10 7.66 10 8.32 10 9 C9.34 9 8.68 9 8 9 C8 9.66 8 10.32 8 11 C6.140625 10.74609375 6.140625 10.74609375 4 10 C2.734375 8.22265625 2.734375 8.22265625 1.75 6.0625 C1.41484375 5.35222656 1.0796875 4.64195313 0.734375 3.91015625 C0 2 0 2 0 0 Z " fill="#CBD135" transform="translate(151,112)"/>
<path d="M0 0 C1.125 3.75 1.125 3.75 0 6 C1.32 5.67 2.64 5.34 4 5 C3.67 5.99 3.34 6.98 3 8 C2.34 8 1.68 8 1 8 C1 8.99 1 9.98 1 11 C0.01 10.67 -0.98 10.34 -2 10 C-1.67 9.01 -1.34 8.02 -1 7 C-4.3 7 -7.6 7 -11 7 C-11 6.34 -11 5.68 -11 5 C-7.7 5 -4.4 5 -1 5 C-0.67 3.35 -0.34 1.7 0 0 Z " fill="#2E2B5F" transform="translate(67,149)"/>
<path d="M0 0 C0.33 1.32 0.66 2.64 1 4 C1.66 4 2.32 4 3 4 C2.61736522 6.77410214 2.28659286 7.76887672 0.0625 9.5625 C-0.618125 10.036875 -1.29875 10.51125 -2 11 C-3.93798263 13.77260299 -3.93798263 13.77260299 -5 16 C-5.66 15.67 -6.32 15.34 -7 15 C-3.535 7.575 -3.535 7.575 0 0 Z " fill="#404051" transform="translate(71,138)"/>
<path d="M0 0 C2.48627517 3.0622744 4.09989404 6.1457054 5.6875 9.75 C6.12449219 10.73484375 6.56148437 11.7196875 7.01171875 12.734375 C7.33785156 13.48203125 7.66398438 14.2296875 8 15 C7.34 15.66 6.68 16.32 6 17 C3.70620251 13.55930376 3 12.27709699 3 8 C1.68 7.34 0.36 6.68 -1 6 C-0.67 4.02 -0.34 2.04 0 0 Z " fill="#BCC240" transform="translate(152,96)"/>
<path d="M0 0 C0.99 0 1.98 0 3 0 C4.4606285 2.64738916 5 3.89448334 5 7 C3.625 8.5625 3.625 8.5625 2 10 C1.34 10.66 0.68 11.32 0 12 C-0.33 9.36 -0.66 6.72 -1 4 C-0.34 4 0.32 4 1 4 C0.67 2.68 0.34 1.36 0 0 Z " fill="#2E2B77" transform="translate(131,84)"/>
<path d="M0 0 C0.99 0 1.98 0 3 0 C2.39644592 3.85025879 1.23227397 6.86101159 -0.5625 10.3125 C-1.01753906 11.19550781 -1.47257812 12.07851562 -1.94140625 12.98828125 C-2.29074219 13.65214844 -2.64007813 14.31601563 -3 15 C-3.33 15 -3.66 15 -4 15 C-4.125 12.125 -4.125 12.125 -4 9 C-3.34 8.34 -2.68 7.68 -2 7 C-2 6.175 -2 5.35 -2 4.5 C-2 2 -2 2 0 0 Z " fill="#C8CB40" transform="translate(95,84)"/>
<path d="M0 0 C4.875 0.875 4.875 0.875 6 2 C5.53017945 8.34257749 5.53017945 8.34257749 3.4375 10.9375 C2.963125 11.288125 2.48875 11.63875 2 12 C1.67 10.68 1.34 9.36 1 8 C1.66 8 2.32 8 3 8 C2.01 5.36 1.02 2.72 0 0 Z " fill="#C5CD42" transform="translate(71,78)"/>
<path d="M0 0 C1 2 1 2 0.5 3.875 C-0.06796534 6.28885269 0.25055468 7.66839233 1 10 C0.67 9.34 0.34 8.68 0 8 C-0.66 8 -1.32 8 -2 8 C-2.33 9.32 -2.66 10.64 -3 12 C-3.66 12 -4.32 12 -5 12 C-5 12.99 -5 13.98 -5 15 C-5.66 15 -6.32 15 -7 15 C-5.34292168 9.35086937 -3.52237988 4.73699363 0 0 Z " fill="#B6BA49" transform="translate(109,88)"/>
<path d="M0 0 C0.66 0 1.32 0 2 0 C3.8125 1.9375 3.8125 1.9375 5 5 C4.35675785 8.15294102 3.25608066 11.04337938 2 14 C1.34 13.67 0.68 13.34 0 13 C0.66666667 11 1.33333333 9 2 7 C1.01 6.67 0.02 6.34 -1 6 C-0.67 4.02 -0.34 2.04 0 0 Z " fill="#D2D92D" transform="translate(119,80)"/>
<path d="M0 0 C1.875 0.1875 1.875 0.1875 4 1 C5.4823389 3.61173997 6.08333929 5.24994642 5.75 8.25 C5 10 5 10 3 11 C3 9.68 3 8.36 3 7 C2.34 7 1.68 7 1 7 C0.67 4.69 0.34 2.38 0 0 Z " fill="#2E2B75" transform="translate(124,78)"/>
<path d="M0 0 C0.66 0 1.32 0 2 0 C0.45454854 5.47932789 -2.15543212 10.11429181 -5 15 C-6.04449911 11.86650268 -5.93423645 11.01031744 -5 8 C-4.34 8 -3.68 8 -3 8 C-3 6.02 -3 4.04 -3 2 C-2.01 2.33 -1.02 2.66 0 3 C0 2.01 0 1.02 0 0 Z " fill="#BFC347" transform="translate(51,130)"/>
<path d="M0 0 C0.66 0 1.32 0 2 0 C3.125 7.625 3.125 7.625 2 11 C0.35 10.67 -1.3 10.34 -3 10 C-2.01 6.7 -1.02 3.4 0 0 Z " fill="#353458" transform="translate(77,80)"/>
<path d="M0 0 C1.98 0 3.96 0 6 0 C4.68 0.33 3.36 0.66 2 1 C1.67 2.98 1.34 4.96 1 7 C-0.32 7.33 -1.64 7.66 -3 8 C-3.33 9.98 -3.66 11.96 -4 14 C-4.66 14 -5.32 14 -6 14 C-4.7023817 8.70139194 -2.84984298 4.65474354 0 0 Z " fill="#464347" transform="translate(113,55)"/>
<path d="M0 0 C0.99 0 1.98 0 3 0 C1.50829734 4.9723422 -0.60457417 9.41845739 -3 14 C-3.66 13.34 -4.32 12.68 -5 12 C-4.75 9.9375 -4.75 9.9375 -4 8 C-3.34 7.67 -2.68 7.34 -2 7 C-1.26924352 4.6859378 -0.59861742 2.35171131 0 0 Z " fill="#413E4C" transform="translate(38,133)"/>
<path d="M0 0 C0.33 1.32 0.66 2.64 1 4 C0.34 4 -0.32 4 -1 4 C-0.67 5.32 -0.34 6.64 0 8 C-0.66 8 -1.32 8 -2 8 C-2 9.32 -2 10.64 -2 12 C-2.99 12 -3.98 12 -5 12 C-5.33 13.32 -5.66 14.64 -6 16 C-6.33 15.34 -6.66 14.68 -7 14 C-5.92481882 11.55667274 -4.80191434 9.23245477 -3.5625 6.875 C-3.22412109 6.21628906 -2.88574219 5.55757813 -2.53710938 4.87890625 C-1.69850074 3.24893453 -0.85015189 1.62398091 0 0 Z " fill="#BDC547" transform="translate(101,104)"/>
<path d="M0 0 C0.33 1.32 0.66 2.64 1 4 C0.34 4 -0.32 4 -1 4 C-0.814375 4.9075 -0.62875 5.815 -0.4375 6.75 C-0.04265379 9.68314324 -0.05308428 11.2644657 -1 14 C-1 13.34 -1 12.68 -1 12 C-2.32 12 -3.64 12 -5 12 C-4.54738642 10.56068883 -4.08767021 9.12361001 -3.625 7.6875 C-3.24214844 6.48673828 -3.24214844 6.48673828 -2.8515625 5.26171875 C-2 3 -2 3 0 0 Z " fill="#3E3D5B" transform="translate(58,120)"/>
<path d="M0 0 C1 2 1 2 1 5 C4.63 5.33 8.26 5.66 12 6 C11.67 6.66 11.34 7.32 11 8 C7.04 8 3.08 8 -1 8 C-1.04241723 5.66705225 -1.04092937 3.33297433 -1 1 C-0.67 0.67 -0.34 0.34 0 0 Z " fill="#CCCE37" transform="translate(93,120)"/>
<path d="M0 0 C0.99 0 1.98 0 3 0 C3 0.99 3 1.98 3 3 C3.66 3 4.32 3 5 3 C5 3.99 5 4.98 5 6 C5.66 6 6.32 6 7 6 C7.33 8.64 7.66 11.28 8 14 C3.490815 10.11277156 1.84763705 5.54291115 0 0 Z " fill="#BEC443" transform="translate(140,93)"/>
<path d="M0 0 C0.66 0.33 1.32 0.66 2 1 C2.4140625 3.28515625 2.4140625 3.28515625 2.625 6.0625 C2.69976562 6.98160156 2.77453125 7.90070313 2.8515625 8.84765625 C2.90054688 9.55792969 2.94953125 10.26820313 3 11 C1.68 11 0.36 11 -1 11 C-1 10.01 -1 9.02 -1 8 C-1.66 8 -2.32 8 -3 8 C-3 7.01 -3 6.02 -3 5 C-2.34 5 -1.68 5 -1 5 C-0.67 3.35 -0.34 1.7 0 0 Z " fill="#28286D" transform="translate(58,127)"/>
<path d="M0 0 C1.07174763 3.65188082 0.76411467 6.26432828 0 10 C-0.66 10 -1.32 10 -2 10 C-2 10.66 -2 11.32 -2 12 C-3.32 12.33 -4.64 12.66 -6 13 C-4.31326082 8.50202887 -2.18326108 4.27113698 0 0 Z " fill="#BFC443" transform="translate(70,120)"/>
<path d="M0 0 C2.34917898 2.15341406 3.82443004 4.21667937 5.25 7.0625 C5.60578125 7.75472656 5.9615625 8.44695312 6.328125 9.16015625 C6.54984375 9.76730469 6.7715625 10.37445313 7 11 C6.67 11.66 6.34 12.32 6 13 C5.67 12.01 5.34 11.02 5 10 C3.68 10 2.36 10 1 10 C-0.1577506 6.52674819 -0.06866652 3.63932552 0 0 Z " fill="#C4CB40" transform="translate(140,75)"/>
<path d="M0 0 C0.91058531 3.07322544 1.08886184 5.80097361 1 9 C2.65 9 4.3 9 6 9 C5.34 9.66 4.68 10.32 4 11 C0.875 10.625 0.875 10.625 -2 10 C-2.25 3.375 -2.25 3.375 0 0 Z " fill="#B5BC4D" transform="translate(58,144)"/>
<path d="M0 0 C1.41687119 4.25061356 0.19320039 6.71851625 -1 11 C-3.31 11 -5.62 11 -8 11 C-8 10.34 -8 9.68 -8 9 C-6.02 8.67 -4.04 8.34 -2 8 C-2 5.69 -2 3.38 -2 1 C-1.34 0.67 -0.68 0.34 0 0 Z " fill="#373651" transform="translate(168,120)"/>
<path d="M0 0 C0.66 0 1.32 0 2 0 C0.50829734 4.9723422 -1.60457417 9.41845739 -4 14 C-4.33 14 -4.66 14 -5 14 C-5 12.35 -5 10.7 -5 9 C-4.34 9 -3.68 9 -3 9 C-3.33 7.35 -3.66 5.7 -4 4 C-3.01 4 -2.02 4 -1 4 C-0.67 2.68 -0.34 1.36 0 0 Z " fill="#3A3A4F" transform="translate(86,84)"/>
<path d="M0 0 C1.69141656 0.08963062 3.37959602 0.24577676 5.0625 0.4375 C6.44115234 0.59025391 6.44115234 0.59025391 7.84765625 0.74609375 C8.55792969 0.82988281 9.26820312 0.91367188 10 1 C10 1.99 10 2.98 10 4 C8.8553125 3.6596875 8.8553125 3.6596875 7.6875 3.3125 C6.800625 3.209375 5.91375 3.10625 5 3 C3.2912354 4.37514541 3.2912354 4.37514541 2 6 C1.34 6 0.68 6 0 6 C-0.38218767 4.34385343 -0.71395102 2.67542976 -1 1 C-0.67 0.67 -0.34 0.34 0 0 Z " fill="#4C4860" transform="translate(66,76)"/>
<path d="M0 0 C1.9375 0.6875 1.9375 0.6875 4 2 C4.75 4.625 4.75 4.625 5 7 C3.35 7 1.7 7 0 7 C-1.125 2.25 -1.125 2.25 0 0 Z " fill="#D0D821" transform="translate(59,146)"/>
<path d="M0 0 C0.66 0 1.32 0 2 0 C2 3.3 2 6.6 2 10 C1.01 10 0.02 10 -1 10 C-1.33 7.36 -1.66 4.72 -2 2 C-1.34 2 -0.68 2 0 2 C0 1.34 0 0.68 0 0 Z " fill="#CFD518" transform="translate(68,130)"/>
<path d="M0 0 C1.65 0 3.3 0 5 0 C4.67 1.32 4.34 2.64 4 4 C4.99 4.33 5.98 4.66 7 5 C5.625 7 5.625 7 4 9 C3.34 9 2.68 9 2 9 C2 6.69 2 4.38 2 2 C1.34 2.66 0.68 3.32 0 4 C0 2.68 0 1.36 0 0 Z " fill="#29296C" transform="translate(59,120)"/>
<path d="M0 0 C1.37553268 3.82092412 0.81309902 7.08234111 0 11 C-0.99 11.495 -0.99 11.495 -2 12 C-3.01911045 8.10885099 -3.16782969 6.39403493 -1.5625 2.625 C-1.046875 1.75875 -0.53125 0.8925 0 0 Z " fill="#C9CD3D" transform="translate(62,136)"/>
<path d="M0 0 C2.01136276 2.55991624 3.62845496 5.04590299 5 8 C2.625 8.1875 2.625 8.1875 0 8 C-0.66 7.01 -1.32 6.02 -2 5 C-1.125 2.3125 -1.125 2.3125 0 0 Z " fill="#36325A" transform="translate(154,120)"/>
<path d="M0 0 C0.33 0 0.66 0 1 0 C1 2.64 1 5.28 1 8 C0.34 8 -0.32 8 -1 8 C-1.33 8.99 -1.66 9.98 -2 11 C-2.66 11 -3.32 11 -4 11 C-3.52269162 9.5410574 -3.04308958 8.08286504 -2.5625 6.625 C-2.29566406 5.81289062 -2.02882813 5.00078125 -1.75390625 4.1640625 C-1 2 -1 2 0 0 Z " fill="#373355" transform="translate(106,69)"/>
<path d="M0 0 C2.48862878 3.23521742 4.75421558 6.59260295 7 10 C6.67 10.66 6.34 11.32 6 12 C5.34 12 4.68 12 4 12 C3.67 10.35 3.34 8.7 3 7 C1.68 6.67 0.36 6.34 -1 6 C-0.34 6 0.32 6 1 6 C0.67 4.02 0.34 2.04 0 0 Z " fill="#C0C745" transform="translate(130,56)"/>
<path d="M0 0 C1 4 1 4 0.0390625 6.2890625 C-0.42757812 7.05992188 -0.89421875 7.83078125 -1.375 8.625 C-1.83648437 9.40101562 -2.29796875 10.17703125 -2.7734375 10.9765625 C-3.17820312 11.64429687 -3.58296875 12.31203125 -4 13 C-4.33 13.66 -4.66 14.32 -5 15 C-5.66 14.67 -6.32 14.34 -7 14 C-4.69 9.38 -2.38 4.76 0 0 Z " fill="#504F40" transform="translate(95,91)"/>
<path d="M0 0 C2.33944736 0.28730055 4.6739143 0.61936779 7 1 C7.33 2.65 7.66 4.3 8 6 C7.34 5.67 6.68 5.34 6 5 C6 4.01 6 3.02 6 2 C1.39257135 3.21044132 1.39257135 3.21044132 -3 5 C-1.125 1.125 -1.125 1.125 0 0 Z " fill="#B0B64E" transform="translate(115,78)"/>
<path d="M0 0 C2.97246802 2.54782974 4.41535288 5.45340883 6 9 C6 9.66 6 10.32 6 11 C3.17621961 9.96461386 2.1756855 9.33380245 0.75 6.625 C0 4 0 4 0 0 Z " fill="#3E3B49" transform="translate(123,63)"/>
<path d="M0 0 C0.99 0 1.98 0 3 0 C3 1.32 3 2.64 3 4 C3.99 4.33 4.98 4.66 6 5 C6 8 6 8 5 11 C4.16151196 9.54462432 3.32936066 8.08559627 2.5 6.625 C1.80390625 5.40683594 1.80390625 5.40683594 1.09375 4.1640625 C0 2 0 2 0 0 Z " fill="#3F3D51" transform="translate(157,104)"/>
<path d="M0 0 C0.66 0.33 1.32 0.66 2 1 C2 2.98 2 4.96 2 7 C0.35 6.67 -1.3 6.34 -3 6 C-2.01 4.02 -1.02 2.04 0 0 Z " fill="#2F2A78" transform="translate(72,97)"/>
<path d="M0 0 C0.66 0.33 1.32 0.66 2 1 C0.35 4.3 -1.3 7.6 -3 11 C-3.33 11 -3.66 11 -4 11 C-4 8.69 -4 6.38 -4 4 C-3.01 4 -2.02 4 -1 4 C-0.67 2.68 -0.34 1.36 0 0 Z " fill="#3E3B4A" transform="translate(58,96)"/>
<path d="M0 0 C-0.598125 0.226875 -1.19625 0.45375 -1.8125 0.6875 C-4.60112637 2.36067582 -5.45033586 4.17017853 -7 7 C-7.99 8.32 -8.98 9.64 -10 11 C-9.34 7.7 -8.68 4.4 -8 1 C-5.07175348 0.02391783 -3.04386724 -0.08226668 0 0 Z " fill="#454349" transform="translate(119,77)"/>
<path d="M0 0 C0.33 0 0.66 0 1 0 C1.125 7.75 1.125 7.75 0 10 C-0.66 10 -1.32 10 -2 10 C-2.33 10.66 -2.66 11.32 -3 12 C-3.33 10.35 -3.66 8.7 -4 7 C-3.34 7 -2.68 7 -2 7 C-1.34 4.69 -0.68 2.38 0 0 Z " fill="#CED41B" transform="translate(101,67)"/>
<path d="M0 0 C1.0169313 2.65498232 1.13022151 3.69155375 0.00390625 6.359375 C-0.47175781 7.14828125 -0.94742188 7.9371875 -1.4375 8.75 C-1.91058594 9.54921875 -2.38367187 10.3484375 -2.87109375 11.171875 C-3.24363281 11.77515625 -3.61617187 12.3784375 -4 13 C-4.66 13 -5.32 13 -6 13 C-4.31326082 8.50202887 -2.18326108 4.27113698 0 0 Z " fill="#BBBD51" transform="translate(60,96)"/>
<path d="M0 0 C3 1 3 1 4.203125 2.9609375 C4.54859375 3.75757812 4.8940625 4.55421875 5.25 5.375 C5.60578125 6.16648437 5.9615625 6.95796875 6.328125 7.7734375 C7 10 7 10 6 13 C4.99491199 11.21118264 3.99607264 9.41885304 3 7.625 C2.1646875 6.12839844 2.1646875 6.12839844 1.3125 4.6015625 C0 2 0 2 0 0 Z " fill="#BDC24A" transform="translate(117,92)"/>
<path d="M0 0 C0.33 0 0.66 0 1 0 C1 2.97 1 5.94 1 9 C-0.32 8.67 -1.64 8.34 -3 8 C-1.125 2.25 -1.125 2.25 0 0 Z " fill="#BCC33D" transform="translate(90,80)"/>
<path d="M0 0 C0.99 0.33 1.98 0.66 3 1 C2.67 2.65 2.34 4.3 2 6 C1.01 5.67 0.02 5.34 -1 5 C-1 5.99 -1 6.98 -1 8 C-1.66 8 -2.32 8 -3 8 C-1.125 2.25 -1.125 2.25 0 0 Z " fill="#C5CA40" transform="translate(102,56)"/>
<path d="M0 0 C2 2 2 2 2 6 C-0.4375 5.625 -0.4375 5.625 -3 5 C-3.33 4.34 -3.66 3.68 -4 3 C-2.68 2.01 -1.36 1.02 0 0 Z " fill="#CED52B" transform="translate(140,122)"/>
<path d="M0 0 C0.33 0 0.66 0 1 0 C1.2295711 3.36704285 1.33943529 5.41370268 -0.375 8.375 C-0.91125 8.91125 -1.4475 9.4475 -2 10 C-2.66 10 -3.32 10 -4 10 C-3.52449439 8.51965236 -3.04448784 7.04074979 -2.5625 5.5625 C-2.29566406 4.73878906 -2.02882813 3.91507812 -1.75390625 3.06640625 C-1 1 -1 1 0 0 Z " fill="#504F4B" transform="translate(73,90)"/>
<path d="M0 0 C0.66 0.66 1.32 1.32 2 2 C1.625 4.625 1.625 4.625 1 7 C-0.32 7.33 -1.64 7.66 -3 8 C-1.125 2.25 -1.125 2.25 0 0 Z " fill="#C1CB3E" transform="translate(86,88)"/>
<path d="M0 0 C1.32 0 2.64 0 4 0 C3.34 1.98 2.68 3.96 2 6 C1.01 6 0.02 6 -1 6 C-0.67 4.02 -0.34 2.04 0 0 Z " fill="#322A73" transform="translate(107,80)"/>
<path d="M0 0 C1.485 0.99 1.485 0.99 3 2 C3.1875 4.625 3.1875 4.625 3 7 C1.68 6.67 0.36 6.34 -1 6 C-0.67 4.02 -0.34 2.04 0 0 Z " fill="#CCD718" transform="translate(36,146)"/>
<path d="M0 0 C0.6875 1.6875 0.6875 1.6875 1 4 C-0.3125 6.75 -0.3125 6.75 -2 9 C-2.66 9 -3.32 9 -4 9 C-2.94124926 5.59687262 -1.99097846 2.98646769 0 0 Z " fill="#414045" transform="translate(114,99)"/>
<path d="M0 0 C2.64465038 3.1254959 3.84414715 6.08788267 5 10 C4.34 10 3.68 10 3 10 C3 9.34 3 8.68 3 8 C2.34 8 1.68 8 1 8 C0.67 5.36 0.34 2.72 0 0 Z " fill="#B4B74D" transform="translate(133,104)"/>
<path d="M0 0 C0.66 0 1.32 0 2 0 C2.99 2.31 3.98 4.62 5 7 C4.34 7.66 3.68 8.32 3 9 C0.70620251 5.55930376 0 4.27709699 0 0 Z " fill="#C7CE3D" transform="translate(155,104)"/>
<path d="M0 0 C0.98726527 2.66561622 1.0275526 3.90126985 0.25 6.6875 C-1 9 -1 9 -4 10 C-2.8905928 6.51329166 -1.73662334 3.22515763 0 0 Z " fill="#C7CB45" transform="translate(67,82)"/>
<path d="M0 0 C0.268125 0.639375 0.53625 1.27875 0.8125 1.9375 C1.88667752 4.33131686 1.88667752 4.33131686 5 5 C2.35261084 6.4606285 1.10551666 7 -2 7 C-2 6.34 -2 5.68 -2 5 C-1.34 5 -0.68 5 0 5 C0 3.35 0 1.7 0 0 Z " fill="#302E7C" transform="translate(110,72)"/>
<path d="M0 0 C1.32 0 2.64 0 4 0 C3.625 2.9375 3.625 2.9375 3 6 C2.01 6.495 2.01 6.495 1 7 C1 5.68 1 4.36 1 3 C0.34 3 -0.32 3 -1 3 C-0.67 2.01 -0.34 1.02 0 0 Z " fill="#CCD03C" transform="translate(97,77)"/>
<path d="M0 0 C0.66 1.32 1.32 2.64 2 4 C0.68 4.99 -0.64 5.98 -2 7 C-1.67 5.68 -1.34 4.36 -1 3 C-1.99 3 -2.98 3 -4 3 C-4 2.34 -4 1.68 -4 1 C-2.68 0.67 -1.36 0.34 0 0 Z " fill="#2F2E61" transform="translate(94,111)"/>
<path d="M0 0 C2.43840236 2.43840236 3.62292893 4.85240898 5 8 C4.67 8.66 4.34 9.32 4 10 C1 8 1 8 0.48828125 6.0546875 C0.32552083 4.03645833 0.16276042 2.01822917 0 0 Z " fill="#464246" transform="translate(120,99)"/>
<path d="M0 0 C0.99 0 1.98 0 3 0 C3.53229326 1.26607607 4.05044544 2.53810412 4.5625 3.8125 C4.85253906 4.52019531 5.14257812 5.22789063 5.44140625 5.95703125 C6 8 6 8 5 11 C4.16151196 9.54462432 3.32936066 8.08559627 2.5 6.625 C1.80390625 5.40683594 1.80390625 5.40683594 1.09375 4.1640625 C0 2 0 2 0 0 Z " fill="#3A3845" transform="translate(132,101)"/>
<path d="M0 0 C1.32 0.99 2.64 1.98 4 3 C3.34 4.65 2.68 6.3 2 8 C1.01 7.34 0.02 6.68 -1 6 C-0.67 4.02 -0.34 2.04 0 0 Z " fill="#CDD519" transform="translate(127,100)"/>
<path d="M0 0 C0.99 0 1.98 0 3 0 C3.33 1.98 3.66 3.96 4 6 C3.01 6 2.02 6 1 6 C0.67 4.02 0.34 2.04 0 0 Z " fill="#CFD81C" transform="translate(145,90)"/>
<path d="M0 0 C0.33 0.66 0.66 1.32 1 2 C0.0625 4.625 0.0625 4.625 -1 7 C-1.66 7 -2.32 7 -3 7 C-3.33 7.66 -3.66 8.32 -4 9 C-3.38461538 3.46153846 -3.38461538 3.46153846 -1.4375 1.125 C-0.963125 0.75375 -0.48875 0.3825 0 0 Z " fill="#CAD239" transform="translate(114,81)"/>
<path d="M0 0 C0.33 0.66 0.66 1.32 1 2 C0.01 3.485 0.01 3.485 -1 5 C-1.70164642 6.98799818 -2.37372872 8.98698517 -3 11 C-3.66 11 -4.32 11 -5 11 C-3.92289822 6.69159287 -2.96052484 3.36423277 0 0 Z " fill="#444245" transform="translate(101,80)"/>
<path d="M0 0 C0.66 0 1.32 0 2 0 C2 0.66 2 1.32 2 2 C2.66 2 3.32 2 4 2 C3.67 2.99 3.34 3.98 3 5 C3 4.34 3 3.68 3 3 C2.34 3 1.68 3 1 3 C0.67 4.65 0.34 6.3 0 8 C-0.33 8 -0.66 8 -1 8 C-1.04241723 5.66705225 -1.04092937 3.33297433 -1 1 C-0.67 0.67 -0.34 0.34 0 0 Z " fill="#D2D727" transform="translate(106,55)"/>
<path d="M0 0 C2.375 0.25 2.375 0.25 5 1 C6.375 2.8125 6.375 2.8125 7 5 C6.625 7.25 6.625 7.25 6 9 C4 6 2 3 0 0 Z " fill="#474845" transform="translate(124,47)"/>
<path d="M0 0 C0.33 0.66 0.66 1.32 1 2 C-1.48387097 8.74193548 -1.48387097 8.74193548 -4 10 C-3.52449439 8.51965236 -3.04448784 7.04074979 -2.5625 5.5625 C-2.29566406 4.73878906 -2.02882812 3.91507813 -1.75390625 3.06640625 C-1 1 -1 1 0 0 Z " fill="#484643" transform="translate(46,144)"/>
<path d="M0 0 C1.98 0.495 1.98 0.495 4 1 C3.34 3.31 2.68 5.62 2 8 C1.67 8 1.34 8 1 8 C1 6.35 1 4.7 1 3 C0.34 3 -0.32 3 -1 3 C-0.67 2.01 -0.34 1.02 0 0 Z " fill="#C7CD3F" transform="translate(66,139)"/>
<path d="M0 0 C0.33 0 0.66 0 1 0 C1 2.64 1 5.28 1 8 C-0.32 8 -1.64 8 -3 8 C-1.125 2.25 -1.125 2.25 0 0 Z " fill="#3E3C4E" transform="translate(62,112)"/>
<path d="M0 0 C2.69504819 2.69504819 5 6.08360477 5 10 C2 9 2 9 0.8125 6.6875 C0 4 0 4 0 0 Z " fill="#514D44" transform="translate(134,82)"/>
<path d="M0 0 C2 3 2 3 1.75 6.0625 C1 9 1 9 -1 11 C-0.67 7.37 -0.34 3.74 0 0 Z " fill="#B1B941" transform="translate(102,69)"/>
<path d="M0 0 C0.99 0.495 0.99 0.495 2 1 C1.67 1.66 1.34 2.32 1 3 C1.99 3.33 2.98 3.66 4 4 C4.6875 6.0625 4.6875 6.0625 5 8 C4.01 8 3.02 8 2 8 C0.23537317 4.91190305 0 3.76687864 0 0 Z " fill="#3E3A55" transform="translate(131,54)"/>
<path d="M0 0 C0.66 0 1.32 0 2 0 C2.33 2.31 2.66 4.62 3 7 C2.01 6.67 1.02 6.34 0 6 C-0.38218767 4.34385343 -0.71395102 2.67542976 -1 1 C-0.67 0.67 -0.34 0.34 0 0 Z " fill="#2A2967" transform="translate(89,123)"/>
<path d="M0 0 C0.66 0 1.32 0 2 0 C2 2.64 2 5.28 2 8 C1.67 7.34 1.34 6.68 1 6 C0.01 5.67 -0.98 5.34 -2 5 C-1.34 3.35 -0.68 1.7 0 0 Z " fill="#D4D731" transform="translate(55,115)"/>
<path d="M0 0 C0.99 0 1.98 0 3 0 C2.67 2.31 2.34 4.62 2 7 C0 5 0 5 -0.125 2.375 C-0.08375 1.59125 -0.0425 0.8075 0 0 Z " fill="#363065" transform="translate(163,112)"/>
<path d="M0 0 C0.33 1.32 0.66 2.64 1 4 C1.66 4 2.32 4 3 4 C3 4.66 3 5.32 3 6 C1.02 6.99 1.02 6.99 -1 8 C-1.125 2.25 -1.125 2.25 0 0 Z " fill="#3E4058" transform="translate(87,106)"/>
<path d="M0 0 C0.66 0 1.32 0 2 0 C1.67 2.31 1.34 4.62 1 7 C0.34 7 -0.32 7 -1 7 C-1 6.34 -1 5.68 -1 5 C-1.66 5 -2.32 5 -3 5 C-3 4.34 -3 3.68 -3 3 C-2.01 3 -1.02 3 0 3 C0 2.01 0 1.02 0 0 Z " fill="#2E2E78" transform="translate(91,105)"/>
<path d="M0 0 C2.89932357 2.39509338 3.50168276 4.31245243 4 8 C2.68 8.33 1.36 8.66 0 9 C0.66 8.67 1.32 8.34 2 8 C1.67 7.4225 1.34 6.845 1 6.25 C0 4 0 4 0 0 Z " fill="#393953" transform="translate(141,96)"/>
<path d="M0 0 C3 1 3 1 4.25 2.8125 C5.11637742 5.33943414 4.88492145 6.52221994 4 9 C0 2.25 0 2.25 0 0 Z " fill="#C6D044" transform="translate(130,73)"/>
<path d="M0 0 C2.50037734 2.17424117 3.43628586 3.73045798 4 7 C2.68 6.67 1.36 6.34 0 6 C0 4.02 0 2.04 0 0 Z " fill="#36354E" transform="translate(119,56)"/>
</svg>
